<?xml version="1.0" encoding="utf-8"?>
<!-- Generator: Adobe Illustrator 23.0.2, SVG Export Plug-In . SVG Version: 6.00 Build 0)  -->
<svg version="1.1" id="Layer_1" xmlns="http://www.w3.org/2000/svg" xmlns:xlink="http://www.w3.org/1999/xlink" x="0px" y="0px"
	 viewBox="0 0 95.41 111.84" style="enable-background:new 0 0 95.41 111.84;" xml:space="preserve">
<style type="text/css">
	.st0{fill:#00B085;}
	.st1{fill:none;stroke:#3C4344;stroke-width:3;stroke-miterlimit:10;}
	.st2{fill:#FFFFFF;}
	.st3{fill:#3C4344;}
</style>
<circle class="st0" cx="50.38" cy="45.03" r="45.03"/>
<circle class="st1" cx="46.53" cy="49.17" r="45.03"/>
<g>
	<g>
		<path class="st2" d="M18.55,90.59c11.32-20.58,20.33-42.31,26.88-64.87c-1.52,0.2-3.05,0.4-4.57,0.6
			c11.44,27.06,22.8,54.2,31.05,82.43c0.9,3.08,5.73,1.77,4.82-1.33C68.36,78.77,56.78,51.25,45.18,23.8
			c-0.88-2.09-4.03-1.28-4.57,0.6c-6.43,22.16-15.25,43.46-26.37,63.67C12.68,90.89,17,93.41,18.55,90.59L18.55,90.59z"/>
	</g>
</g>
<g>
	<g>
		<path class="st2" d="M31.85,61.74c7.77,0,15.54,0,23.32,0c3.22,0,3.22-5,0-5c-7.77,0-15.54,0-23.32,0
			C28.64,56.74,28.63,61.74,31.85,61.74L31.85,61.74z"/>
	</g>
</g>
<g>
	<g>
		<path class="st2" d="M67.73,51.13c6.22-0.27,12.43-0.54,18.65-0.82c3.21-0.14,3.22-5.14,0-5c-6.22,0.27-12.43,0.54-18.65,0.82
			C64.53,46.27,64.51,51.27,67.73,51.13L67.73,51.13z"/>
	</g>
</g>
<g>
	<g>
		<path class="st3" d="M16.22,91.92c11.32-20.58,20.33-42.31,26.88-64.87c-1.52,0.2-3.05,0.4-4.57,0.6
			c11.44,27.06,22.8,54.2,31.05,82.43c0.9,3.08,5.73,1.77,4.82-1.33c-8.37-28.65-19.95-56.17-31.55-83.63
			c-0.88-2.09-4.03-1.28-4.57,0.6C31.84,47.88,23.02,69.19,11.9,89.4C10.35,92.22,14.66,94.75,16.22,91.92L16.22,91.92z"/>
	</g>
</g>
<g>
	<g>
		<path class="st3" d="M29.52,63.07c7.77,0,15.54,0,23.32,0c3.22,0,3.22-5,0-5c-7.77,0-15.54,0-23.32,0
			C26.3,58.07,26.3,63.07,29.52,63.07L29.52,63.07z"/>
	</g>
</g>
<g>
	<g>
		<path class="st3" d="M65.4,52.46c6.22-0.27,12.43-0.54,18.65-0.82c3.21-0.14,3.22-5.14,0-5c-6.22,0.27-12.43,0.54-18.65,0.82
			C62.19,47.6,62.17,52.6,65.4,52.46L65.4,52.46z"/>
	</g>
</g>
</svg>
