<?xml version="1.0" encoding="utf-8"?>
<!-- Generator: Adobe Illustrator 23.0.2, SVG Export Plug-In . SVG Version: 6.00 Build 0)  -->
<svg version="1.1" id="Layer_1" xmlns="http://www.w3.org/2000/svg" xmlns:xlink="http://www.w3.org/1999/xlink" x="0px" y="0px"
	 viewBox="0 0 95.41 109.84" style="enable-background:new 0 0 95.41 109.84;" xml:space="preserve">
<style type="text/css">
	.st0{fill:#00B085;}
	.st1{fill:none;stroke:#3C4344;stroke-width:3;stroke-miterlimit:10;}
	.st2{fill:#FFFFFF;}
	.st3{fill:#3C4344;}
</style>
<circle class="st0" cx="50.38" cy="45.03" r="45.03"/>
<circle class="st1" cx="46.53" cy="49.17" r="45.03"/>
<g>
	<g>
		<g>
			<path class="st2" d="M14.55,88.59c11.32-20.58,20.33-42.31,26.88-64.87c-1.52,0.2-3.05,0.4-4.57,0.6
				c11.44,27.06,22.8,54.2,31.05,82.43c0.9,3.08,5.73,1.77,4.82-1.33C64.36,76.77,52.78,49.25,41.18,21.8
				c-0.88-2.09-4.03-1.28-4.57,0.6c-6.43,22.16-15.25,43.46-26.37,63.67C8.68,88.89,13,91.41,14.55,88.59L14.55,88.59z"/>
		</g>
	</g>
	<g>
		<g>
			<path class="st2" d="M27.85,59.74c7.77,0,15.54,0,23.32,0c3.22,0,3.22-5,0-5c-7.77,0-15.54,0-23.32,0
				C24.64,54.74,24.63,59.74,27.85,59.74L27.85,59.74z"/>
		</g>
	</g>
	<g>
		<g>
			<path class="st2" d="M68.4,36.08c0.24,6.52,1.16,12.95,2.76,19.28c0.79,3.12,5.61,1.8,4.82-1.33
				c-1.49-5.91-2.35-11.86-2.58-17.95C73.28,32.87,68.28,32.85,68.4,36.08L68.4,36.08z"/>
		</g>
	</g>
	<g>
		<g>
			<path class="st2" d="M63.73,49.13c6.22-0.27,12.43-0.54,18.65-0.82c3.21-0.14,3.22-5.14,0-5c-6.22,0.27-12.43,0.54-18.65,0.82
				C60.53,44.27,60.51,49.27,63.73,49.13L63.73,49.13z"/>
		</g>
	</g>
</g>
<g>
	<g>
		<g>
			<path class="st3" d="M12.22,89.92c11.32-20.58,20.33-42.31,26.88-64.87c-1.52,0.2-3.05,0.4-4.57,0.6
				c11.44,27.06,22.8,54.2,31.05,82.43c0.9,3.08,5.73,1.77,4.82-1.33c-8.37-28.65-19.95-56.17-31.55-83.63
				c-0.88-2.09-4.03-1.28-4.57,0.6C27.84,45.88,19.02,67.19,7.9,87.4C6.35,90.22,10.66,92.75,12.22,89.92L12.22,89.92z"/>
		</g>
	</g>
	<g>
		<g>
			<path class="st3" d="M25.52,61.07c7.77,0,15.54,0,23.32,0c3.22,0,3.22-5,0-5c-7.77,0-15.54,0-23.32,0
				C22.3,56.07,22.3,61.07,25.52,61.07L25.52,61.07z"/>
		</g>
	</g>
	<g>
		<g>
			<path class="st3" d="M66.07,37.41c0.24,6.52,1.16,12.95,2.76,19.28c0.79,3.12,5.61,1.8,4.82-1.33
				c-1.49-5.91-2.35-11.86-2.58-17.95C70.95,34.2,65.95,34.19,66.07,37.41L66.07,37.41z"/>
		</g>
	</g>
	<g>
		<g>
			<path class="st3" d="M61.4,50.46c6.22-0.27,12.43-0.54,18.65-0.82c3.21-0.14,3.22-5.14,0-5c-6.22,0.27-12.43,0.54-18.65,0.82
				C58.19,45.6,58.17,50.6,61.4,50.46L61.4,50.46z"/>
		</g>
	</g>
</g>
</svg>
