<?xml version="1.0" encoding="utf-8"?>
<!-- Generator: Adobe Illustrator 23.0.2, SVG Export Plug-In . SVG Version: 6.00 Build 0)  -->
<svg version="1.1" id="Layer_1" xmlns="http://www.w3.org/2000/svg" xmlns:xlink="http://www.w3.org/1999/xlink" x="0px" y="0px"
	 viewBox="0 0 95.41 111.84" style="enable-background:new 0 0 95.41 111.84;" xml:space="preserve">
<style type="text/css">
	.st0{fill:#00B085;}
	.st1{fill:none;stroke:#3C4344;stroke-width:3;stroke-miterlimit:10;}
	.st2{fill:#FFFFFF;}
	.st3{fill:#3C4344;}
</style>
<circle class="st0" cx="50.38" cy="45.03" r="45.03"/>
<circle class="st1" cx="46.53" cy="49.17" r="45.03"/>
<g>
	<g>
		<path class="st2" d="M24.55,92.59c11.32-20.58,20.33-42.31,26.88-64.87c-1.52,0.2-3.05,0.4-4.57,0.6
			c11.44,27.06,22.8,54.2,31.05,82.43c0.9,3.08,5.73,1.77,4.82-1.33C74.36,80.77,62.78,53.25,51.18,25.8
			c-0.88-2.09-4.03-1.28-4.57,0.6c-6.43,22.16-15.25,43.46-26.37,63.67C18.68,92.89,23,95.41,24.55,92.59L24.55,92.59z"/>
	</g>
</g>
<g>
	<g>
		<path class="st2" d="M37.85,63.74c7.77,0,15.54,0,23.32,0c3.22,0,3.22-5,0-5c-7.77,0-15.54,0-23.32,0
			C34.64,58.74,34.63,63.74,37.85,63.74L37.85,63.74z"/>
	</g>
</g>
<g>
	<g>
		<path class="st3" d="M22.22,93.92c11.32-20.58,20.33-42.31,26.88-64.87c-1.52,0.2-3.05,0.4-4.57,0.6
			c11.44,27.06,22.8,54.2,31.05,82.43c0.9,3.08,5.73,1.77,4.82-1.33c-8.37-28.65-19.95-56.17-31.55-83.63
			c-0.88-2.09-4.03-1.28-4.57,0.6C37.84,49.88,29.02,71.19,17.9,91.4C16.35,94.22,20.66,96.75,22.22,93.92L22.22,93.92z"/>
	</g>
</g>
<g>
	<g>
		<path class="st3" d="M35.52,65.07c7.77,0,15.54,0,23.32,0c3.22,0,3.22-5,0-5c-7.77,0-15.54,0-23.32,0
			C32.3,60.07,32.3,65.07,35.52,65.07L35.52,65.07z"/>
	</g>
</g>
</svg>
