<?xml version="1.0" encoding="utf-8"?>
<!-- Generator: Adobe Illustrator 23.0.2, SVG Export Plug-In . SVG Version: 6.00 Build 0)  -->
<svg version="1.1" id="Layer_1" xmlns="http://www.w3.org/2000/svg" xmlns:xlink="http://www.w3.org/1999/xlink" x="0px" y="0px"
	 viewBox="0 0 104.17 97.54" style="enable-background:new 0 0 104.17 97.54;" xml:space="preserve">
<style type="text/css">
	.st0{fill:#F6C031;}
	.st1{fill:none;stroke:#3C4344;stroke-width:3;stroke-miterlimit:10;}
	.st2{fill:#FFFFFF;}
	.st3{fill:#3C4344;}
</style>
<circle class="st0" cx="47.01" cy="45.03" r="45.03"/>
<circle class="st1" cx="46.53" cy="51.01" r="45.03"/>
<g>
	<g>
		<g>
			<g>
				<path class="st2" d="M31.12,77.86c-0.99-8.07-2.41-16.07-4.44-23.95c-0.91-3.53-1.93-7.04-3.05-10.51
					c-0.75-2.31-1.61-4.59-2.39-6.89c-0.69-2.02-1.28-1.66,1.17-2.29c6.28-1.59,22.85-1.98,22.66,7.29
					c-0.15,7.27-6.43,16.16-13.95,16.72c-3.17,0.24-3.24,5.14,0,5c4.56-0.19,9.06,0.09,13.5,1.18c1.71,0.42,3.49,0.9,5.12,1.56
					c1.05,0.38,2.04,0.87,2.97,1.47c1.93,0.94,2.34,2.31,1.24,4.11c-1.31,5.64-8.01,4.98-12.76,5.07
					c-4.32,0.09-8.64,0.17-12.96,0.25c-3.21,0.06-3.22,5.06,0,5c8.81-0.17,30.71,3.03,31.57-10.65
					c0.77-12.21-20.68-13.32-28.68-12.99c0,1.67,0,3.33,0,5c9.26-0.69,15.66-8.49,18.14-17c3.04-10.45-3.43-15.73-13.15-17.17
					c-5.28-0.79-11.68-1.05-16.82,0.74c-4.25,1.48-4.24,4.22-2.87,8.04c4.68,12.98,8.02,26.31,9.7,40.02
					C26.51,81.01,31.51,81.05,31.12,77.86L31.12,77.86z"/>
			</g>
		</g>
	</g>
	<g>
		<g>
			<g>
				<path class="st3" d="M33.28,75.7c-0.99-8.07-2.41-16.07-4.44-23.95c-0.91-3.53-1.93-7.04-3.05-10.51
					c-0.75-2.31-1.61-4.59-2.39-6.89c-0.69-2.02-1.28-1.66,1.17-2.29c6.28-1.59,22.85-1.98,22.66,7.29
					c-0.15,7.27-6.43,16.16-13.95,16.72c-3.17,0.24-3.24,5.14,0,5c4.56-0.19,9.06,0.09,13.5,1.18c1.71,0.42,3.49,0.9,5.12,1.56
					c1.05,0.38,2.04,0.87,2.97,1.47c1.93,0.94,2.34,2.31,1.24,4.11c-1.31,5.64-8.01,4.98-12.76,5.07
					c-4.32,0.09-8.64,0.17-12.96,0.25c-3.21,0.06-3.22,5.06,0,5c8.81-0.17,30.71,3.03,31.57-10.65
					c0.77-12.21-20.68-13.32-28.68-12.99c0,1.67,0,3.33,0,5c9.26-0.69,15.66-8.49,18.14-17c3.04-10.45-3.43-15.73-13.15-17.17
					c-5.28-0.79-11.68-1.05-16.82,0.74c-4.25,1.48-4.24,4.22-2.87,8.04c4.68,12.98,8.02,26.31,9.7,40.02
					C28.67,78.85,33.67,78.89,33.28,75.7L33.28,75.7z"/>
			</g>
		</g>
	</g>
</g>
<g>
	<g>
		<g>
			<path class="st2" d="M78.71,50.87c-0.24-6.52-1.16-12.95-2.76-19.28c-0.79-3.12-5.61-1.8-4.82,1.33
				c1.49,5.91,2.35,11.86,2.58,17.95C73.83,54.08,78.83,54.09,78.71,50.87L78.71,50.87z"/>
		</g>
	</g>
	<g>
		<g>
			<path class="st2" d="M83.38,37.82c-6.22,0.27-12.43,0.54-18.65,0.82c-3.21,0.14-3.22,5.14,0,5c6.22-0.27,12.43-0.54,18.65-0.82
				C86.59,42.68,86.61,37.68,83.38,37.82L83.38,37.82z"/>
		</g>
	</g>
	<g>
		<g>
			<path class="st3" d="M81.05,49.54c-0.24-6.52-1.16-12.95-2.76-19.28c-0.79-3.12-5.61-1.8-4.82,1.33
				c1.49,5.91,2.35,11.86,2.58,17.95C76.17,52.74,81.17,52.76,81.05,49.54L81.05,49.54z"/>
		</g>
	</g>
	<g>
		<g>
			<path class="st3" d="M85.72,36.48c-6.22,0.27-12.43,0.54-18.65,0.82c-3.21,0.14-3.22,5.14,0,5c6.22-0.27,12.43-0.54,18.65-0.82
				C88.92,41.34,88.94,36.34,85.72,36.48L85.72,36.48z"/>
		</g>
	</g>
</g>
</svg>
