<?xml version="1.0" encoding="utf-8"?>
<!-- Generator: Adobe Illustrator 23.0.2, SVG Export Plug-In . SVG Version: 6.00 Build 0)  -->
<svg version="1.1" id="Layer_1" xmlns="http://www.w3.org/2000/svg" xmlns:xlink="http://www.w3.org/1999/xlink" x="0px" y="0px"
	 viewBox="0 0 95.86 94.65" style="enable-background:new 0 0 95.86 94.65;" xml:space="preserve">
<style type="text/css">
	.st0{fill:#F6C031;}
	.st1{fill:none;stroke:#3C4344;stroke-width:3;stroke-miterlimit:10;}
	.st2{fill:none;stroke:#FFFFFF;stroke-width:5;stroke-linecap:round;stroke-miterlimit:10;}
	.st3{fill:none;stroke:#3C4344;stroke-width:5;stroke-linecap:round;stroke-miterlimit:10;}
	.st4{fill:#FFFFFF;}
	.st5{fill:#3C4344;}
</style>
<circle class="st0" cx="45.03" cy="49.62" r="45.03"/>
<circle class="st1" cx="49.33" cy="46.53" r="45.03"/>
<path class="st2" d="M60.4,19.57c-10.56,1.11-22.08,2.69-29.33,10.45c-3.88,4.15-6.05,9.7-6.7,15.34
	c-0.99,8.64,1.64,17.74,7.47,24.19s14.87,10.01,23.48,8.79s16.45-7.41,19.21-15.66"/>
<path class="st3" d="M63.4,18.57c-10.56,1.11-22.08,2.69-29.33,10.45c-3.88,4.15-6.05,9.7-6.7,15.34
	c-0.99,8.64,1.64,17.74,7.47,24.19s14.87,10.01,23.48,8.79s16.45-7.41,19.21-15.66"/>
<g>
	<g>
		<path class="st4" d="M74.34,31.82c0.24,6.52,1.16,12.95,2.76,19.28c0.79,3.12,5.61,1.8,4.82-1.33
			c-1.49-5.91-2.35-11.86-2.58-17.95C79.22,28.62,74.22,28.6,74.34,31.82L74.34,31.82z"/>
	</g>
</g>
<g>
	<g>
		<path class="st4" d="M69.67,44.88c6.22-0.27,12.43-0.54,18.65-0.82c3.21-0.14,3.22-5.14,0-5c-6.22,0.27-12.43,0.54-18.65,0.82
			C66.47,40.02,66.45,45.02,69.67,44.88L69.67,44.88z"/>
	</g>
</g>
<g>
	<g>
		<path class="st5" d="M72.01,33.16c0.24,6.52,1.16,12.95,2.76,19.28c0.79,3.12,5.61,1.8,4.82-1.33
			c-1.49-5.91-2.35-11.86-2.58-17.95C76.89,29.95,71.89,29.93,72.01,33.16L72.01,33.16z"/>
	</g>
</g>
<g>
	<g>
		<path class="st5" d="M67.34,46.21c6.22-0.27,12.43-0.54,18.65-0.82c3.21-0.14,3.22-5.14,0-5c-6.22,0.27-12.43,0.54-18.65,0.82
			C64.13,41.35,64.12,46.35,67.34,46.21L67.34,46.21z"/>
	</g>
</g>
<g>
	<g>
		<path class="st4" d="M131.34,30.82c0.24,6.52,1.16,12.95,2.76,19.28c0.79,3.12,5.61,1.8,4.82-1.33
			c-1.49-5.91-2.35-11.86-2.58-17.95C136.22,27.62,131.22,27.6,131.34,30.82L131.34,30.82z"/>
	</g>
</g>
<g>
	<g>
		<path class="st4" d="M126.67,43.88c6.22-0.27,12.43-0.54,18.65-0.82c3.21-0.14,3.22-5.14,0-5c-6.22,0.27-12.43,0.54-18.65,0.82
			C123.47,39.02,123.45,44.02,126.67,43.88L126.67,43.88z"/>
	</g>
</g>
<g>
	<g>
		<path class="st5" d="M129.01,32.16c0.24,6.52,1.16,12.95,2.76,19.28c0.79,3.12,5.61,1.8,4.82-1.33
			c-1.49-5.91-2.35-11.86-2.58-17.95C133.89,28.95,128.89,28.93,129.01,32.16L129.01,32.16z"/>
	</g>
</g>
<g>
	<g>
		<path class="st5" d="M124.34,45.21c6.22-0.27,12.43-0.54,18.65-0.82c3.21-0.14,3.22-5.14,0-5c-6.22,0.27-12.43,0.54-18.65,0.82
			C121.13,40.35,121.12,45.35,124.34,45.21L124.34,45.21z"/>
	</g>
</g>
</svg>
