<?xml version="1.0" encoding="utf-8"?>
<!-- Generator: Adobe Illustrator 23.0.2, SVG Export Plug-In . SVG Version: 6.00 Build 0)  -->
<svg version="1.1" id="Layer_1" xmlns="http://www.w3.org/2000/svg" xmlns:xlink="http://www.w3.org/1999/xlink" x="0px" y="0px"
	 viewBox="0 0 104.13 95.86" style="enable-background:new 0 0 104.13 95.86;" xml:space="preserve">
<style type="text/css">
	.st0{fill:#F6C031;}
	.st1{fill:none;stroke:#3C4344;stroke-width:3;stroke-miterlimit:10;}
	.st2{fill:none;stroke:#FFFFFF;stroke-width:5;stroke-linecap:round;stroke-miterlimit:10;}
	.st3{fill:none;stroke:#3C4344;stroke-width:5;stroke-linecap:round;stroke-miterlimit:10;}
</style>
<circle class="st0" cx="56.19" cy="47.6" r="45.03"/>
<circle class="st1" cx="50.96" cy="46.75" r="45.03"/>
<path class="st2" d="M66.8,18.67c-10.56,1.11-22.08,2.69-29.33,10.45c-3.88,4.15-6.05,9.7-6.7,15.34
	c-0.99,8.64,1.64,17.74,7.47,24.19c5.83,6.45,14.87,10.01,23.48,8.79s16.45-7.41,19.21-15.66"/>
<path class="st3" d="M69.8,17.67c-10.56,1.11-22.08,2.69-29.33,10.45c-3.88,4.15-6.05,9.7-6.7,15.34
	c-0.99,8.64,1.64,17.74,7.47,24.19c5.83,6.45,14.87,10.01,23.48,8.79s16.45-7.41,19.21-15.66"/>
</svg>
