<?xml version="1.0" encoding="utf-8"?>
<!-- Generator: Adobe Illustrator 23.0.2, SVG Export Plug-In . SVG Version: 6.00 Build 0)  -->
<svg version="1.1" id="Layer_1" xmlns="http://www.w3.org/2000/svg" xmlns:xlink="http://www.w3.org/1999/xlink" x="0px" y="0px"
	 viewBox="0 0 94.65 95.86" style="enable-background:new 0 0 94.65 95.86;" xml:space="preserve">
<style type="text/css">
	.st0{fill:#E36C3D;}
	.st1{fill:none;stroke:#3C4344;stroke-width:3;stroke-miterlimit:10;}
	.st2{fill:#FFFFFF;}
	.st3{fill:#3C4344;}
</style>
<circle class="st0" cx="45.03" cy="45.03" r="45.03"/>
<circle class="st1" cx="48.12" cy="49.33" r="45.03"/>
<g>
	<g>
		<path class="st2" d="M22.9,78.29c-1.01-13.54-2.02-27.08-3.03-40.63c-0.24-3.21-1.34-7.49-0.79-10.64c0.14-1.08,0-1.26-0.4-0.55
			c0.63,0.04,1.25,0.09,1.88,0.13c2.13,0.46,4.69,0.44,6.82,0.75c6.29,0.91,12.77,2.2,18.67,4.59c5.86,2.37,11.62,6.49,13.34,12.91
			c1.72,6.42-1.76,13.21-6.43,17.46c-9.51,8.65-22.83,7.82-33.71,13.49c-2.85,1.49-0.33,5.81,2.52,4.32
			c7.3-3.81,15.94-4.27,23.55-7.43c6.42-2.66,12.31-6.67,15.99-12.69c7.29-11.93,1.87-25.06-10.02-31.17
			c-6.94-3.57-14.94-5.17-22.59-6.31c-3.84-0.57-13.08-3.41-14.61,2.01c-0.9,3.19,0.39,7.84,0.64,11.18
			c0.34,4.51,0.67,9.03,1.01,13.54c0.72,9.67,1.44,19.35,2.17,29.02C18.13,81.48,23.14,81.51,22.9,78.29L22.9,78.29z"/>
	</g>
</g>
<g>
	<g>
		<path class="st3" d="M25.89,76.29c-1.01-13.54-2.02-27.08-3.03-40.63c-0.24-3.21-1.34-7.49-0.79-10.64c0.14-1.08,0-1.26-0.4-0.55
			c0.63,0.04,1.25,0.09,1.88,0.13c2.13,0.46,4.69,0.44,6.82,0.75c6.29,0.91,12.77,2.2,18.67,4.59c5.86,2.37,11.62,6.49,13.34,12.91
			c1.72,6.42-1.76,13.21-6.43,17.46c-9.51,8.65-22.83,7.82-33.71,13.49c-2.85,1.49-0.33,5.81,2.52,4.32
			c7.3-3.81,15.94-4.27,23.55-7.43c6.42-2.66,12.31-6.67,15.99-12.69c7.29-11.93,1.87-25.06-10.02-31.17
			c-6.94-3.57-14.94-5.17-22.59-6.31c-3.84-0.57-13.08-3.41-14.61,2.01c-0.9,3.19,0.39,7.84,0.64,11.18
			c0.34,4.51,0.67,9.03,1.01,13.54c0.72,9.67,1.44,19.35,2.17,29.02C21.13,79.48,26.13,79.51,25.89,76.29L25.89,76.29z"/>
	</g>
</g>
<g>
	<g>
		<path class="st2" d="M99.38,41.82c-7.55,0.32-15.1,0.5-22.65,0.82c-3.21,0.14-3.22,5.14,0,5c7.55-0.32,15.1-0.5,22.65-0.82
			C102.59,46.68,102.61,41.68,99.38,41.82L99.38,41.82z"/>
	</g>
</g>
<g>
	<g>
		<path class="st3" d="M101.72,40.48c-7.55,0.32-15.1,0.5-22.65,0.82c-3.21,0.14-3.22,5.14,0,5c7.55-0.32,15.1-0.5,22.65-0.82
			C104.92,45.35,104.94,40.35,101.72,40.48L101.72,40.48z"/>
	</g>
</g>
</svg>
