<?xml version="1.0" encoding="utf-8"?>
<!-- Generator: Adobe Illustrator 23.0.2, SVG Export Plug-In . SVG Version: 6.00 Build 0)  -->
<svg version="1.1" id="Layer_1" xmlns="http://www.w3.org/2000/svg" xmlns:xlink="http://www.w3.org/1999/xlink" x="0px" y="0px"
	 viewBox="0 0 94.65 95.86" style="enable-background:new 0 0 94.65 95.86;" xml:space="preserve">
<style type="text/css">
	.st0{fill:#E36C3D;}
	.st1{fill:none;stroke:#3C4344;stroke-width:3;stroke-miterlimit:10;}
	.st2{fill:#FFFFFF;}
	.st3{fill:#3C4344;}
</style>
<circle class="st0" cx="45.03" cy="45.03" r="45.03"/>
<circle class="st1" cx="48.12" cy="49.33" r="45.03"/>
<g>
	<g>
		<path class="st2" d="M22.9,89.29c-1.01-13.54-2.02-27.08-3.03-40.63c-0.24-3.21-1.34-7.49-0.79-10.64c0.14-1.08,0-1.26-0.4-0.55
			c0.63,0.04,1.25,0.09,1.88,0.13c2.13,0.46,4.69,0.44,6.82,0.75c6.29,0.91,12.77,2.2,18.67,4.59c5.86,2.37,11.62,6.49,13.34,12.91
			c1.72,6.42-1.76,13.21-6.43,17.46c-9.51,8.65-22.83,7.82-33.71,13.49c-2.85,1.49-0.33,5.81,2.52,4.32
			c7.3-3.81,15.94-4.27,23.55-7.43c6.42-2.66,12.31-6.67,15.99-12.69c7.29-11.93,1.87-25.06-10.02-31.17
			c-6.94-3.57-14.94-5.17-22.59-6.31c-3.84-0.57-13.08-3.41-14.61,2.01c-0.9,3.19,0.39,7.84,0.64,11.18
			c0.34,4.51,0.67,9.03,1.01,13.54c0.72,9.67,1.44,19.35,2.17,29.02C18.13,92.48,23.14,92.51,22.9,89.29L22.9,89.29z"/>
	</g>
</g>
<g>
	<g>
		<path class="st3" d="M25.89,87.29c-1.01-13.54-2.02-27.08-3.03-40.63c-0.24-3.21-1.34-7.49-0.79-10.64c0.14-1.08,0-1.26-0.4-0.55
			c0.63,0.04,1.25,0.09,1.88,0.13c2.13,0.46,4.69,0.44,6.82,0.75c6.29,0.91,12.77,2.2,18.67,4.59c5.86,2.37,11.62,6.49,13.34,12.91
			c1.72,6.42-1.76,13.21-6.43,17.46c-9.51,8.65-22.83,7.82-33.71,13.49c-2.85,1.49-0.33,5.81,2.52,4.32
			c7.3-3.81,15.94-4.27,23.55-7.43c6.42-2.66,12.31-6.67,15.99-12.69c7.29-11.93,1.87-25.06-10.02-31.17
			c-6.94-3.57-14.94-5.17-22.59-6.31c-3.84-0.57-13.08-3.41-14.61,2.01c-0.9,3.19,0.39,7.84,0.64,11.18
			c0.34,4.51,0.67,9.03,1.01,13.54c0.72,9.67,1.44,19.35,2.17,29.02C21.13,90.48,26.13,90.51,25.89,87.29L25.89,87.29z"/>
	</g>
</g>
<g>
	<g>
		<path class="st2" d="M84.71,36.87c-0.24-6.52-1.16-12.95-2.76-19.28c-0.79-3.12-5.61-1.8-4.82,1.33
			c1.49,5.91,2.35,11.86,2.58,17.95C79.83,40.08,84.83,40.09,84.71,36.87L84.71,36.87z"/>
	</g>
</g>
<g>
	<g>
		<path class="st2" d="M89.38,23.82c-6.22,0.27-12.43,0.54-18.65,0.82c-3.21,0.14-3.22,5.14,0,5c6.22-0.27,12.43-0.54,18.65-0.82
			C92.59,28.68,92.61,23.68,89.38,23.82L89.38,23.82z"/>
	</g>
</g>
<g>
	<g>
		<path class="st3" d="M87.05,35.54c-0.24-6.52-1.16-12.95-2.76-19.28c-0.79-3.12-5.61-1.8-4.82,1.33
			c1.49,5.91,2.35,11.86,2.58,17.95C82.17,38.74,87.17,38.76,87.05,35.54L87.05,35.54z"/>
	</g>
</g>
<g>
	<g>
		<path class="st3" d="M91.72,22.48c-6.22,0.27-12.43,0.54-18.65,0.82c-3.21,0.14-3.22,5.14,0,5c6.22-0.27,12.43-0.54,18.65-0.82
			C94.92,27.34,94.94,22.34,91.72,22.48L91.72,22.48z"/>
	</g>
</g>
</svg>
