<svg id="Layer_1" data-name="Layer 1" xmlns="http://www.w3.org/2000/svg" width="138.7" height="126.6" viewBox="0 0 138.7 126.6"><title>Artboard 5</title><path d="M64.4,12.6,6,113.9a8.5,8.5,0,0,0,7.3,12.7H130.2a8.5,8.5,0,0,0,7.4-12.7L79.1,12.6A8.5,8.5,0,0,0,64.4,12.6Z" fill="#2ea467"/><path d="M59.7,5.1,16.8,79.5C11.6,88.4,5.9,97.2,1.3,106.4c-3.7,7.3,1.1,15.2,9.2,15.5,3.7.2,7.4,0,11.1,0h98.9c3.2,0,7.1.5,10.2-.6,6.8-2.5,8.1-10,4.8-15.8-6-11-12.6-21.9-18.8-32.8L89.1,25,79.8,9C77.7,5.3,75.9,1.6,71.4.4s-9,.8-11.7,4.7C58.4,7.2,61.6,9,63,7c3.1-4.5,8.8-3.9,11.6.4.7,1.1,1.3,2.2,1.9,3.3l8,13.8L109.6,68l20.6,35.8c2.3,3.9,5.7,8.3,1.5,12.4-2.7,2.7-7.2,2-10.7,2H10.4c-5.2-.3-8.2-5.1-5.9-9.9,4-8.2,9.2-16,13.8-23.9C32.8,59.2,47.7,34.1,62,8.7L63,7C64.2,4.9,60.9,3.1,59.7,5.1Z" fill="#2b2b2b"/><path d="M62.3,65.7c7.8,0,15.3-6.9,15-15s-6.6-15-15-15-15.4,6.9-15,15,6.6,15,15,15Z" fill="#fff"/><path d="M62.1,56.9c6.4,0,6.4-10,0-10s-6.5,10,0,10Z" fill="#2b2b2b"/><path d="M95,64.6c7.9,0,15.4-6.9,15-15s-6.5-15-15-15-15.3,6.9-15,15,6.6,15,15,15Z" fill="#fff"/><path d="M96,56.2c6.4,0,6.4-10,0-10s-6.5,10,0,10Z" fill="#2b2b2b"/><path d="M64.4,86.3l9.2-2.1c3.1-.7,1.8-5.5-1.4-4.8l-9.1,2.1c-3.2.7-1.8,5.5,1.3,4.8Z" fill="#2b2b2b"/></svg>