<?xml version="1.0" encoding="utf-8"?>
<!-- Generator: Adobe Illustrator 23.0.2, SVG Export Plug-In . SVG Version: 6.00 Build 0)  -->
<svg version="1.1" id="Layer_1" xmlns="http://www.w3.org/2000/svg" xmlns:xlink="http://www.w3.org/1999/xlink" x="0px" y="0px"
	 viewBox="0 0 110.85 144.91" style="enable-background:new 0 0 110.85 144.91;" xml:space="preserve">
<style type="text/css">
	.st0{fill:#00B085;}
	.st1{fill:none;stroke:#3C4344;stroke-width:4;stroke-miterlimit:10;}
	.st2{fill:#FFFFFF;}
	.st3{fill:#3C4344;}
</style>
<ellipse class="st0" cx="58.93" cy="68.67" rx="51.92" ry="68.67"/>
<ellipse class="st1" cx="53.92" cy="74.24" rx="51.92" ry="68.67"/>
<g>
	<g>
		<g>
			<path class="st2" d="M41.06,65c7.85,0,15.36-6.9,15-15c-0.36-8.13-6.59-15-15-15c-7.85,0-15.36,6.9-15,15
				C26.43,58.13,32.65,65,41.06,65L41.06,65z"/>
		</g>
	</g>
	<g>
		<g>
			<path class="st3" d="M40.85,56.14c6.43,0,6.45-10,0-10C34.42,46.14,34.41,56.14,40.85,56.14L40.85,56.14z"/>
		</g>
	</g>
</g>
<g>
	<g>
		<g>
			<path class="st2" d="M73.82,63.88c7.85,0,15.36-6.9,15-15c-0.36-8.13-6.59-15-15-15c-7.85,0-15.36,6.9-15,15
				C59.18,57.01,65.41,63.88,73.82,63.88L73.82,63.88z"/>
		</g>
	</g>
	<g>
		<g>
			<path class="st3" d="M74.73,55.42c6.43,0,6.45-10,0-10C68.29,45.42,68.28,55.42,74.73,55.42L74.73,55.42z"/>
		</g>
	</g>
</g>
<g>
	<g>
		<path class="st3" d="M40.85,87.56c0.28,7.22-0.69,16.22,3.1,22.73c3.2,5.5,8.79,6.65,14.75,6.56c4.9-0.07,9.96-1.23,12.06-6.17
			c2.91-6.87,1.76-16.64,1-23.82c-0.34-3.17-5.34-3.2-5,0c0.53,5.01,0.73,10.02,0.4,15.05c-0.12,1.8-0.1,4.35-0.73,6.05
			c-1.37,3.71-4.43,3.81-7.73,3.89c-6.14,0.14-10.43-1.78-11.85-8c-1.19-5.19-0.78-11-0.99-16.29
			C45.72,84.35,40.72,84.34,40.85,87.56L40.85,87.56z"/>
	</g>
</g>
</svg>
