<svg id="Layer_1" data-name="Layer 1" xmlns="http://www.w3.org/2000/svg" width="176.6" height="174.9" viewBox="0 0 176.6 174.9"><title>Artboard 3</title><circle cx="84.5" cy="84.5" r="84.5" fill="#f7bd16"/><circle cx="90.1" cy="88.4" r="84.5" fill="none" stroke="#2b2b2b" stroke-miterlimit="10" stroke-width="4"/><path d="M52.2,101.6c7.8,0,15.3-6.9,15-15s-6.6-15-15-15-15.4,6.9-15,15,6.6,15,15,15Z" fill="#fff"/><path d="M116.2,101.6c7.8,0,15.4-6.9,15-15s-6.6-15-15-15-15.4,6.9-15,15,6.6,15,15,15Z" fill="#fff"/><path d="M55,94.7c6.4,0,6.4-10,0-10s-6.5,10,0,10Z" fill="#2b2b2b"/><path d="M119.1,95.1c6.4,0,6.4-10,0-10s-6.4,10,0,10Z" fill="#2b2b2b"/><path d="M45.4,130.1q53.4-7.5,105.9-19.1c3.2-.7,1.8-5.5-1.3-4.8-35,7.7-70.4,14.1-105.9,19.1-3.2.4-1.8,5.2,1.3,4.8Z" fill="#2b2b2b"/></svg>