<svg id="Layer_1" data-name="Layer 1" xmlns="http://www.w3.org/2000/svg" width="201.7" height="162.5" viewBox="0 0 201.7 162.5"><title>Artboard 6</title><path d="M116.8,151.5l83.7-139a8.2,8.2,0,0,0-7-12.4H104.3a8,8,0,0,0-7,4L13.5,142.9a8.3,8.3,0,0,0,7,12.5h89.2A8.3,8.3,0,0,0,116.8,151.5Z" fill="#f7bd16"/><path d="M106.4,156.5l83.7-139a8.2,8.2,0,0,0-7-12.4H93.9a8.2,8.2,0,0,0-7,4L3.2,147.9a8.2,8.2,0,0,0,7,12.5H99.4A8.1,8.1,0,0,0,106.4,156.5Z" fill="none" stroke="#2b2b2b" stroke-miterlimit="10" stroke-width="4"/><path d="M107.9,54.9c7.8,0,15.3-6.9,15-15s-6.6-15-15-15-15.4,6.9-15,15,6.6,15,15,15Z" fill="#fff"/><path d="M113.9,43.5c6.4,0,6.4-10,0-10s-6.5,10,0,10Z" fill="#2b2b2b"/><path d="M88.7,72.5c1.9,14.1,15.4,22.6,29,19,3.1-.9,1.8-5.7-1.3-4.9-11.2,3-21.3-4.1-22.9-15.4-.4-3.2-5.3-1.8-4.8,1.3Z" fill="#2b2b2b"/></svg>