<svg id="Layer_1" data-name="Layer 1" xmlns="http://www.w3.org/2000/svg" width="153.8" height="112.6" viewBox="0 0 153.8 112.6"><title>Artboard 4</title><ellipse cx="73.4" cy="53.2" rx="73.4" ry="53.2" fill="#ed481c"/><ellipse cx="78.4" cy="57.4" rx="73.4" ry="53.2" fill="none" stroke="#2b2b2b" stroke-miterlimit="10" stroke-width="4"/><path d="M40.5,55.6c7.9,0,15.4-6.9,15-15s-6.6-15-15-15-15.3,6.9-15,15,6.6,15,15,15Z" fill="#fff"/><path d="M40.3,44.2c3.2,0,3.2-5,0-5s-3.2,5,0,5Z" fill="#2b2b2b"/><path d="M110.4,53.9c7.8,0,15.4-6.9,15-15s-6.6-15-15-15-15.4,6.9-15,15,6.6,15,15,15Z" fill="#fff"/><path d="M111.3,42.9c3.2,0,3.2-5,0-5s-3.2,5,0,5Z" fill="#2b2b2b"/><path d="M76.8,53.9c7.8,0,15.3-6.9,15-15s-6.6-15-15-15-15.4,6.9-15,15,6.6,15,15,15Z" fill="#fff"/><path d="M77.7,42.9c3.2,0,3.2-5,0-5s-3.2,5,0,5Z" fill="#2b2b2b"/><path d="M77.7,87.1c9.7,0,9.7-15,0-15s-9.6,15,0,15Z" fill="#2b2b2b"/></svg>