<svg id="Layer_1" data-name="Layer 1" xmlns="http://www.w3.org/2000/svg" width="109.4" height="111" viewBox="0 0 109.4 111"><title>Artboard 7</title><rect width="104.2" height="104.19" rx="19.7" fill="#ed481c"/><rect x="3.7" y="5.3" width="104.2" height="104.19" rx="19.7" fill="none" stroke="#2b2b2b" stroke-miterlimit="10" stroke-width="3"/><path d="M57.4,56.5c7.8,0,15.3-6.9,15-15s-6.6-15-15-15-15.4,6.9-15,15,6.6,15,15,15Z" fill="#fff"/><path d="M57.9,47.4c6.4,0,6.4-10,0-10s-6.5,10,0,10Z" fill="#2b2b2b"/><path d="M23.5,65.2a26.2,26.2,0,0,1-.8,7.9c-.7,2.6-2,3.7-4.4,4.8s-.4,5.7,2.5,4.4,5-3,6.1-6.1a25.9,25.9,0,0,0,1.6-11c-.2-3.2-5.2-3.3-5,0Z" fill="#2b2b2b"/><path d="M24.1,76.8a93.9,93.9,0,0,0,65.1,5.9c3.1-.9,1.8-5.7-1.3-4.8a88.4,88.4,0,0,1-61.3-5.4c-2.9-1.4-5.4,2.9-2.5,4.3Z" fill="#2b2b2b"/></svg>