<?xml version="1.0" encoding="utf-8"?>
<!-- Generator: Adobe Illustrator 23.0.2, SVG Export Plug-In . SVG Version: 6.00 Build 0)  -->
<svg version="1.1" id="Layer_1" xmlns="http://www.w3.org/2000/svg" xmlns:xlink="http://www.w3.org/1999/xlink" x="0px" y="0px"
	 viewBox="0 0 96.79 101.16" style="enable-background:new 0 0 96.79 101.16;" xml:space="preserve">
<style type="text/css">
	.st0{fill:#E36C3D;}
	.st1{fill:none;stroke:#3C4344;stroke-width:3;stroke-miterlimit:10;}
	.st2{fill:#FFFFFF;}
	.st3{fill:#3C4344;}
	.st4{fill:none;stroke:#FFFFFF;stroke-width:5;stroke-linecap:round;stroke-miterlimit:10;}
	.st5{fill:none;stroke:#3C4344;stroke-width:5;stroke-linecap:round;stroke-miterlimit:10;}
</style>
<circle class="st0" cx="45.03" cy="45.68" r="45.03"/>
<circle class="st1" cx="50.25" cy="46.53" r="45.03"/>
<g>
	<g>
		<path class="st2" d="M131.81,28.85c0.24,6.52,1.16,12.95,2.76,19.28c0.79,3.12,5.61,1.8,4.82-1.33
			c-1.49-5.91-2.35-11.86-2.58-17.95C136.69,25.64,131.69,25.63,131.81,28.85L131.81,28.85z"/>
	</g>
</g>
<g>
	<g>
		<path class="st2" d="M127.14,41.91c6.22-0.27,12.43-0.54,18.65-0.82c3.21-0.14,3.22-5.14,0-5c-6.22,0.27-12.43,0.54-18.65,0.82
			C123.93,37.05,123.91,42.05,127.14,41.91L127.14,41.91z"/>
	</g>
</g>
<g>
	<g>
		<path class="st3" d="M129.47,30.19c0.24,6.52,1.16,12.95,2.76,19.28c0.79,3.12,5.61,1.8,4.82-1.33
			c-1.49-5.91-2.35-11.86-2.58-17.95C134.35,26.98,129.35,26.96,129.47,30.19L129.47,30.19z"/>
	</g>
</g>
<g>
	<g>
		<path class="st3" d="M124.8,43.24c6.22-0.27,12.43-0.54,18.65-0.82c3.21-0.14,3.22-5.14,0-5c-6.22,0.27-12.43,0.54-18.65,0.82
			C121.6,38.38,121.58,43.38,124.8,43.24L124.8,43.24z"/>
	</g>
</g>
<g>
	<path class="st4" d="M31.57,98.66c-1.55-19.71-4.27-39.34-8.13-58.73c18.14-10.4,36.54-21.15,55.66-29.62"/>
	<path class="st4" d="M66.64,46.15c-17.37,1.69-34.32,7.52-49.06,16.87"/>
</g>
<path class="st5" d="M34.57,94.66c-1.55-19.71-4.27-39.34-8.13-58.73C44.58,25.53,62.98,14.78,82.1,6.31"/>
<path class="st5" d="M69.64,42.15c-17.37,1.69-34.32,7.52-49.06,16.87"/>
</svg>
