<?xml version="1.0" encoding="utf-8"?>
<!-- Generator: Adobe Illustrator 23.0.1, SVG Export Plug-In . SVG Version: 6.00 Build 0)  -->
<svg version="1.1" id="Layer_1" xmlns="http://www.w3.org/2000/svg" xmlns:xlink="http://www.w3.org/1999/xlink" x="0px" y="0px"
	 viewBox="0 0 386 720" style="enable-background:new 0 0 386 720;" xml:space="preserve">
<style type="text/css">
	.st0{fill:#00B085;}
</style>
<path class="st0" d="M360.74,286.89c-2.66-2.85-9.14-4.29-19.37-4.29h-35.58c-10.24,0-16.71,1.45-19.37,4.29
	c-2.85,2.66-4.27,9.11-4.27,19.35v254.5c0,24.35-1.06,39.92-3.08,46.66c-5.14,17.4-17.72,26.1-37.78,26.1
	c-15.33,0-26.49-5.83-33.47-17.51c-5.33-9.2-7.94-27.61-7.94-55.25v-254.5c0-1.15-0.02-2.24-0.06-3.29V178.58l25.63,53.6
	c3.67,7.57,8.49,11.36,14.41,11.36c9.82,0,21.71-3.99,35.62-11.96c13.73-7.99,20.57-14.94,20.57-20.89c0-3.28-1.01-6.95-3.08-11.04
	L220.22,47.68C214.3,35.4,206.5,26.54,196.9,21.13c-9.64-5.42-22.4-8.13-38.38-8.13c-29.29,0-48.39,9.3-57.43,27.93L23.74,199.65
	c-1.84,3.88-2.75,7.57-2.75,11.04c0,5.94,6.79,12.9,20.43,20.89c13.59,7.96,25.52,11.96,35.76,11.96c5.74,0,10.42-3.79,14.09-11.36
	L117,178.63V304.3c-0.01,0.63-0.02,1.28-0.02,1.94v276.91c0,15.98,0.32,26.3,0.92,31.01c3.49,31.31,15.56,54.74,36.22,70.31
	c21.3,15.98,50.13,23.94,86.58,23.94c53.62,0,90.48-16.37,110.5-49.12c5.33-8.58,8.95-17.49,10.93-26.69
	c1.93-9.23,2.89-21.71,2.89-37.46V306.24C365.01,296,363.59,289.55,360.74,286.89z"/>
</svg>
