<?xml version="1.0" encoding="utf-8"?>
<!-- Generator: Adobe Illustrator 23.0.2, SVG Export Plug-In . SVG Version: 6.00 Build 0)  -->
<svg version="1.1" id="Layer_1" xmlns="http://www.w3.org/2000/svg" xmlns:xlink="http://www.w3.org/1999/xlink" x="0px" y="0px"
	 viewBox="0 0 357.72 699.61" style="enable-background:new 0 0 357.72 699.61;" xml:space="preserve">
<style type="text/css">
	.st0{fill:#00B085;}
	.st1{fill:none;stroke:#3C4344;stroke-width:8.4234;stroke-linecap:round;stroke-linejoin:round;stroke-miterlimit:10;}
</style>
<g>
	<path class="st0" d="M339.42,302.79v285.05c0,15.54-0.93,27.88-2.82,36.98c-1.98,9.06-5.52,17.86-10.78,26.32
		c-19.75,32.3-56.14,48.48-109.04,48.48c-35.97,0-64.4-7.88-85.41-23.63c-20.39-15.37-32.3-38.49-35.76-69.37
		c-0.59-4.63-0.88-14.83-0.88-30.62V176.94l-25.35,52.77c-3.62,7.5-8.25,11.2-13.94,11.2c-10.07,0-21.86-3.92-35.25-11.79
		C6.7,221.25,0,214.38,0,208.53c0-3.41,0.93-7.08,2.74-10.91L79.05,41.03c8.93-18.41,27.76-27.54,56.65-27.54
		c15.75,0,28.34,2.65,37.86,8c9.48,5.35,17.18,14.07,23.04,26.2l71.77,149.94c2.06,4.04,3.03,7.67,3.03,10.91
		c0,5.85-6.74,12.72-20.3,20.6c-13.69,7.88-25.44,11.79-35.13,11.79c-5.85,0-10.61-3.71-14.24-11.2l-25.27-52.86v124.08
		c0.04,0.63,0.04,1.22,0.04,1.85v251.14c0,27.25,2.57,45.4,7.83,54.5c6.91,11.54,17.9,17.27,33.02,17.27
		c19.8,0,32.22-8.59,37.27-25.73c2.02-6.65,3.03-22.03,3.03-46.03V302.79c0-10.07,1.43-16.47,4.21-19.08
		c2.65-2.82,9.01-4.21,19.12-4.21h35.13c10.07,0,16.47,1.39,19.08,4.21C338.03,286.32,339.42,292.72,339.42,302.79z"/>
	<g>
		<path class="st1" d="M353.51,293.56V578.6c0,15.54-0.93,27.84-2.82,36.98c-1.98,9.05-5.52,17.86-10.78,26.32
			c-19.75,32.3-56.14,48.48-109.04,48.48c-35.97,0-64.4-7.88-85.41-23.63c-20.38-15.37-32.3-38.49-35.76-69.37
			c-0.59-4.63-0.88-14.83-0.88-30.62V167.71l-25.35,52.77c-3.62,7.5-8.26,11.2-13.94,11.2c-10.07,0-21.86-3.92-35.25-11.79
			c-13.48-7.88-20.17-14.74-20.17-20.6c0-3.41,0.93-7.08,2.74-10.91L93.14,31.8c8.93-18.41,27.76-27.59,56.65-27.59
			c15.75,0,28.34,2.7,37.86,8.04c9.48,5.35,17.18,14.07,23.04,26.2l71.77,149.94c2.02,4.04,3.03,7.67,3.03,10.91
			c0,5.85-6.74,12.72-20.3,20.6c-13.73,7.88-25.44,11.79-35.13,11.79c-5.85,0-10.61-3.71-14.24-11.2l-25.27-52.86V291.7
			c0.04,0.59,0.04,1.22,0.04,1.85v251.1c0,27.29,2.57,45.44,7.83,54.54c6.91,11.5,17.9,17.27,33.02,17.27
			c19.8,0,32.22-8.59,37.27-25.73c2.02-6.65,3.03-22.03,3.03-46.08v-251.1c0-10.11,1.43-16.47,4.21-19.08
			c2.65-2.82,9.01-4.25,19.12-4.25h35.13c10.07,0,16.47,1.43,19.08,4.25C352.12,277.09,353.51,283.45,353.51,293.56z"/>
	</g>
</g>
</svg>
