<?xml version="1.0" encoding="utf-8"?>
<!-- Generator: Adobe Illustrator 23.0.1, SVG Export Plug-In . SVG Version: 6.00 Build 0)  -->
<svg version="1.1" id="Layer_1" xmlns="http://www.w3.org/2000/svg" xmlns:xlink="http://www.w3.org/1999/xlink" x="0px" y="0px"
	 viewBox="0 0 568 338" style="enable-background:new 0 0 568 338;" xml:space="preserve">
<style type="text/css">
	.st0{fill:#878E94;}
	.st1{fill:#00B085;}
</style>
<g>
	<g>
		<path class="st0" d="M269.17,296.43c-3.02,1.49-6.6,2.23-10.74,2.23c-4.05,0-7.77-0.74-11.15-2.23s-6.31-3.58-8.78-6.28
			c-2.48-2.7-4.41-5.92-5.81-9.66c-1.4-3.74-2.09-7.82-2.09-12.23c0-4.59,0.72-8.83,2.16-12.7c1.44-3.87,3.45-7.23,6.01-10.07
			c2.57-2.84,5.59-5.07,9.05-6.69c3.47-1.62,7.27-2.43,11.42-2.43c4.05,0,7.54,0.72,10.47,2.16c2.93,1.44,5.79,3.87,8.58,7.3v-2.97
			c0-2.07,0.25-3.36,0.74-3.85c0.5-0.5,1.78-0.74,3.85-0.74h7.16c2.07,0,3.36,0.25,3.85,0.74c0.5,0.5,0.74,1.78,0.74,3.85v51.76
			c0,2.97-0.11,5.59-0.34,7.84c-0.23,2.25-0.59,4.28-1.08,6.08c-0.5,1.8-1.17,3.45-2.03,4.93c-0.86,1.49-1.91,2.95-3.18,4.39
			c-2.88,3.42-6.42,5.99-10.61,7.7s-8.85,2.57-13.99,2.57c-6.49,0-12.18-1.33-17.09-3.99c-4.91-2.66-8.76-6.55-11.55-11.69
			c-1.26-2.07-1.89-4.14-1.89-6.22c0-0.99,0.34-1.67,1.01-2.03c0.68-0.36,1.91-0.54,3.72-0.54h8.38c1.71,0,2.79,0.09,3.24,0.27
			c0.45,0.18,0.9,0.68,1.35,1.49c0.54,1.26,1.04,2.27,1.49,3.04c0.45,0.77,0.88,1.42,1.28,1.96c0.41,0.54,0.88,0.97,1.42,1.28
			c0.54,0.32,1.17,0.65,1.89,1.01c2.43,0.99,4.77,1.49,7.03,1.49c2.07,0,4.08-0.38,6.01-1.15c1.94-0.77,3.58-1.82,4.93-3.18
			c2.43-2.61,3.65-6.67,3.65-12.16v-8.78C275.23,292.44,272.19,294.94,269.17,296.43z M257.48,252.38c-1.98,0.86-3.72,2.03-5.2,3.51
			c-1.49,1.49-2.66,3.22-3.51,5.2s-1.28,4.1-1.28,6.35c0,2.25,0.43,4.39,1.28,6.42c0.86,2.03,2.03,3.78,3.51,5.27
			c1.49,1.49,3.24,2.66,5.27,3.51c2.03,0.86,4.17,1.28,6.42,1.28c2.25,0,4.37-0.43,6.35-1.28c1.98-0.86,3.72-2.03,5.2-3.51
			c1.49-1.49,2.66-3.24,3.51-5.27c0.86-2.03,1.28-4.21,1.28-6.55c0-2.25-0.43-4.35-1.28-6.28c-0.86-1.94-2.03-3.65-3.51-5.13
			c-1.49-1.49-3.22-2.66-5.2-3.51c-1.98-0.86-4.1-1.28-6.35-1.28C261.62,251.09,259.46,251.52,257.48,252.38z"/>
		<path class="st0" d="M329.23,238.93c2.79-1.71,6.08-2.57,9.87-2.57c4.41,0,6.62,1.13,6.62,3.38c0,0.18-0.02,0.54-0.07,1.08
			c-0.04,0.54-0.11,0.95-0.2,1.22l-0.81,5.81c-0.27,1.62-0.61,2.73-1.01,3.31c-0.41,0.59-1.01,0.88-1.82,0.88
			c-0.54,0-0.95-0.04-1.22-0.13c-2.16-0.54-3.96-0.81-5.41-0.81c-1.8,0-3.54,0.38-5.2,1.15c-1.67,0.77-3.13,1.83-4.39,3.18
			c-1.26,1.44-2.18,3.18-2.77,5.2c-0.59,2.03-0.88,4.71-0.88,8.04v23.51c0,2.07-0.25,3.36-0.74,3.85s-1.78,0.74-3.85,0.74h-7.16
			c-2.07,0-3.36-0.25-3.85-0.74c-0.5-0.5-0.74-1.78-0.74-3.85v-49.32c0-2.07,0.25-3.36,0.74-3.85c0.5-0.5,1.78-0.74,3.85-0.74h7.16
			c2.07,0,3.36,0.25,3.85,0.74c0.5,0.5,0.74,1.78,0.74,3.85v4.32C324.01,243.39,326.44,240.64,329.23,238.93z"/>
		<path class="st0" d="M384.23,296.43c-3.06,1.49-6.62,2.23-10.68,2.23c-4.14,0-7.97-0.79-11.49-2.36
			c-3.51-1.58-6.55-3.76-9.12-6.55c-2.57-2.79-4.57-6.08-6.01-9.86c-1.44-3.78-2.16-7.93-2.16-12.43c0-4.42,0.72-8.51,2.16-12.3
			c1.44-3.78,3.45-7.07,6.01-9.86s5.58-4.98,9.05-6.55s7.23-2.37,11.28-2.37c4.05,0,7.59,0.74,10.61,2.23
			c3.02,1.49,5.97,3.9,8.85,7.23v-2.97c0-2.07,0.25-3.36,0.74-3.85c0.5-0.5,1.78-0.74,3.85-0.74h7.03c2.16,0,3.49,0.25,3.99,0.74
			c0.5,0.5,0.74,1.78,0.74,3.85v49.32c0,2.07-0.25,3.36-0.74,3.85c-0.5,0.5-1.83,0.74-3.99,0.74h-7.03c-2.07,0-3.36-0.25-3.85-0.74
			c-0.5-0.5-0.74-1.78-0.74-3.85v-2.97C390.13,292.53,387.29,294.94,384.23,296.43z M371.66,252.38c-1.98,0.86-3.72,2.03-5.2,3.51
			c-1.49,1.49-2.66,3.22-3.51,5.2c-0.86,1.98-1.28,4.1-1.28,6.35c0,2.25,0.43,4.39,1.28,6.42c0.86,2.03,2.03,3.78,3.51,5.27
			s3.22,2.66,5.2,3.51c1.98,0.86,4.1,1.28,6.35,1.28c2.34,0,4.5-0.43,6.49-1.28c1.98-0.86,3.72-2.03,5.2-3.51s2.63-3.24,3.45-5.27
			c0.81-2.03,1.22-4.21,1.22-6.55c0-2.25-0.43-4.35-1.28-6.28c-0.86-1.94-2.03-3.65-3.51-5.13c-1.49-1.49-3.2-2.66-5.13-3.51
			c-1.94-0.86-4.03-1.28-6.28-1.28C375.81,251.09,373.64,251.52,371.66,252.38z"/>
		<path class="st0" d="M455.71,296.43c-3.06,1.49-6.62,2.23-10.68,2.23c-4.14,0-7.97-0.79-11.49-2.36
			c-3.51-1.58-6.55-3.76-9.12-6.55c-2.57-2.79-4.57-6.08-6.01-9.86c-1.44-3.78-2.16-7.93-2.16-12.43c0-4.42,0.72-8.51,2.16-12.3
			c1.44-3.78,3.45-7.07,6.01-9.86s5.58-4.98,9.05-6.55s7.23-2.37,11.28-2.37s7.59,0.74,10.61,2.23c3.02,1.49,5.97,3.9,8.85,7.23
			v-45.67c0-2.07,0.25-3.36,0.74-3.85c0.5-0.5,1.78-0.74,3.85-0.74h7.16c2.07,0,3.36,0.25,3.85,0.74c0.5,0.5,0.74,1.78,0.74,3.85
			v92.02c0,2.07-0.25,3.36-0.74,3.85c-0.5,0.5-1.78,0.74-3.85,0.74h-7.16c-2.07,0-3.36-0.25-3.85-0.74c-0.5-0.5-0.74-1.78-0.74-3.85
			v-2.97C461.61,292.53,458.77,294.94,455.71,296.43z M443.14,252.38c-1.98,0.86-3.72,2.03-5.2,3.51c-1.49,1.49-2.66,3.22-3.51,5.2
			c-0.86,1.98-1.28,4.1-1.28,6.35c0,2.25,0.43,4.39,1.28,6.42c0.86,2.03,2.03,3.78,3.51,5.27s3.24,2.66,5.27,3.51
			c2.03,0.86,4.17,1.28,6.42,1.28c2.25,0,4.37-0.43,6.35-1.28c1.98-0.86,3.72-2.03,5.2-3.51s2.66-3.24,3.51-5.27
			c0.86-2.03,1.28-4.21,1.28-6.55c0-2.25-0.43-4.35-1.28-6.28c-0.86-1.94-2.03-3.65-3.51-5.13c-1.49-1.49-3.22-2.66-5.2-3.51
			c-1.98-0.86-4.1-1.28-6.35-1.28C447.29,251.09,445.12,251.52,443.14,252.38z"/>
		<path class="st0" d="M508.41,281.83c2.43,2.66,5.9,3.99,10.4,3.99c2.7,0,5.16-0.52,7.37-1.55s3.94-2.5,5.2-4.39
			c0.81-1.08,1.67-1.62,2.57-1.62h0.54c0.18,0,0.77,0.09,1.76,0.27l5.95,0.95c1.62,0.27,2.73,0.61,3.31,1.01
			c0.59,0.41,0.88,1.06,0.88,1.96c0,0.9-0.47,2.09-1.42,3.58s-2.05,2.86-3.31,4.12c-5.86,5.67-13.38,8.51-22.57,8.51
			c-4.77,0-9.08-0.74-12.91-2.23c-3.83-1.49-7.12-3.58-9.86-6.28c-2.75-2.7-4.87-5.97-6.35-9.8c-1.49-3.83-2.23-8.08-2.23-12.77
			s0.72-8.96,2.16-12.84c1.44-3.87,3.49-7.16,6.15-9.86c2.66-2.7,5.88-4.8,9.66-6.28c3.78-1.49,8.02-2.23,12.7-2.23
			c6.85,0,12.68,1.58,17.5,4.73c4.82,3.15,8.27,7.61,10.34,13.38c0.63,1.8,1.13,3.76,1.49,5.88s0.54,4.08,0.54,5.88
			c0,1.71-0.27,2.79-0.81,3.24c-0.54,0.45-1.85,0.68-3.92,0.68h-39.05C504.67,275.28,505.98,279.18,508.41,281.83z M518.81,248.12
			c-3.69,0-6.73,1.01-9.12,3.04c-2.39,2.03-3.94,4.89-4.66,8.58h27.7C530.93,251.99,526.29,248.12,518.81,248.12z"/>
	</g>
</g>
<g>
	<path class="st1" d="M142.31,120.17h-14.49c-4.17,0-6.8,0.59-7.89,1.75c-1.16,1.08-1.74,3.71-1.74,7.88v103.64
		c0,9.92-0.43,16.25-1.25,19c-2.09,7.08-7.22,10.63-15.38,10.63c-6.24,0-10.79-2.37-13.63-7.13c-2.17-3.75-3.23-11.24-3.23-22.5
		V129.79c0-0.44-0.01-0.85-0.02-1.26V77.81l10.44,21.83c1.5,3.08,3.46,4.63,5.87,4.63c4,0,8.84-1.63,14.51-4.87
		c5.59-3.25,8.37-6.08,8.37-8.51c0-1.34-0.41-2.83-1.25-4.5L92.98,24.5c-2.41-5-5.59-8.61-9.5-10.81
		c-3.93-2.21-9.12-3.31-15.63-3.31c-11.93,0-19.7,3.79-23.39,11.38l-31.5,64.63c-0.75,1.58-1.12,3.08-1.12,4.5
		c0,2.42,2.77,5.25,8.32,8.51c5.53,3.24,10.39,4.87,14.56,4.87c2.34,0,4.24-1.54,5.74-4.63l10.48-21.81v51.55
		c0,0.14-0.01,0.27-0.01,0.41v112.76c0,6.51,0.13,10.71,0.37,12.63c1.42,12.75,6.34,22.29,14.75,28.63
		c8.67,6.51,20.41,9.75,35.26,9.75c21.83,0,36.85-6.66,45-20c2.17-3.5,3.65-7.12,4.45-10.87c0.79-3.76,1.18-8.84,1.18-15.25V129.79
		c0-4.17-0.58-6.8-1.74-7.88C149.11,120.75,146.48,120.17,142.31,120.17z"/>
	<path class="st1" d="M260.79,145.42c-4.08-8.75-10.04-15.34-17.87-19.75c-6.67-3.67-16.21-5.51-28.62-5.51h-31.26
		c-4.17,0-6.8,0.59-7.87,1.75c-1.18,1.08-1.76,3.71-1.76,7.88v151.39c0,4.17,0.58,6.8,1.76,7.88c1.07,1.17,3.7,1.75,7.87,1.75h14.51
		c4.15,0,6.79-0.58,7.87-1.75c1.16-1.08,1.76-3.71,1.76-7.88v-60.63c2.82,0.34,5.37,0.5,7.61,0.5c18.43,0,32.13-5.83,41.14-17.51
		c6.82-8.92,10.24-19.87,10.24-32.87C266.17,161.67,264.38,153.25,260.79,145.42z M224.41,189.17c-3.4,2.17-9.16,3.21-17.24,3.13
		v-44.88c2.75-0.08,4.65-0.13,5.74-0.13c6.75,0,11.74,1.9,14.94,5.69c3.22,3.79,4.82,9.65,4.82,17.56
		C232.68,179.46,229.93,185.68,224.41,189.17z"/>
</g>
</svg>
