<?xml version="1.0" encoding="utf-8"?>
<!-- Generator: Adobe Illustrator 23.0.2, SVG Export Plug-In . SVG Version: 6.00 Build 0)  -->
<svg version="1.1" id="Layer_1" xmlns="http://www.w3.org/2000/svg" xmlns:xlink="http://www.w3.org/1999/xlink" x="0px" y="0px"
	 viewBox="0 0 550.69 313.84" style="enable-background:new 0 0 550.69 313.84;" xml:space="preserve">
<style type="text/css">
	.st0{fill:#878E94;}
	.st1{fill:#00B085;}
	.st2{fill:none;stroke:#3C4344;stroke-width:3.4563;stroke-linecap:round;stroke-linejoin:round;stroke-miterlimit:10;}
</style>
<g>
	<g>
		<g>
			<path class="st0" d="M273.19,282.31c-3.01,1.48-6.58,2.22-10.71,2.22c-4.03,0-7.71-0.74-11.08-2.22
				c-3.36-1.48-6.28-3.57-8.75-6.25c-2.45-2.69-4.39-5.89-5.78-9.61c-1.38-3.73-2.08-7.78-2.08-12.17c0-4.57,0.72-8.78,2.16-12.64
				s3.42-7.19,5.98-10.02c2.55-2.83,5.56-5.04,9.01-6.65c3.44-1.62,7.23-2.43,11.36-2.43c4.03,0,7.51,0.72,10.43,2.16
				c2.9,1.43,5.74,3.86,8.53,7.26V229c0-2.06,0.24-3.34,0.74-3.83c0.48-0.49,1.77-0.74,3.83-0.74h7.12c2.06,0,3.35,0.25,3.85,0.74
				c0.48,0.49,0.72,1.77,0.72,3.83v51.5c0,2.96-0.11,5.56-0.33,7.8s-0.58,4.26-1.08,6.05c-0.48,1.79-1.15,3.43-2.01,4.91
				c-0.85,1.48-1.91,2.94-3.16,4.37c-2.88,3.41-6.39,5.97-10.56,7.67c-4.16,1.7-8.81,2.56-13.92,2.56c-6.45,0-12.12-1.33-17.01-3.97
				c-4.89-2.65-8.72-6.52-11.5-11.63c-1.25-2.05-1.88-4.12-1.88-6.18c0-0.99,0.33-1.66,1-2.02c0.69-0.36,1.91-0.54,3.7-0.54h8.34
				c1.71,0,2.77,0.09,3.23,0.27c0.45,0.18,0.89,0.67,1.34,1.48c0.54,1.25,1.02,2.27,1.47,3.03c0.46,0.76,0.89,1.4,1.28,1.94
				c0.41,0.54,0.87,0.97,1.41,1.28c0.54,0.32,1.17,0.65,1.88,1c2.43,0.99,4.76,1.48,7.01,1.48c2.06,0,4.05-0.38,5.98-1.14
				c1.91-0.76,3.55-1.81,4.91-3.16c2.42-2.59,3.62-6.63,3.62-12.1v-8.74C279.21,278.35,276.18,280.84,273.19,282.31z M261.56,238.48
				c-1.97,0.85-3.7,2.02-5.19,3.49c-1.47,1.48-2.64,3.21-3.49,5.18c-0.86,1.97-1.28,4.08-1.28,6.32s0.43,4.38,1.28,6.39
				c0.85,2.02,2.03,3.76,3.49,5.24c1.49,1.48,3.23,2.64,5.24,3.49c2.03,0.85,4.16,1.27,6.39,1.27c2.25,0,4.35-0.42,6.32-1.27
				c1.97-0.85,3.7-2.02,5.19-3.49c1.47-1.48,2.64-3.22,3.49-5.24s1.26-4.19,1.26-6.52c0-2.24-0.41-4.33-1.26-6.25
				c-0.85-1.92-2.03-3.63-3.49-5.11c-1.49-1.48-3.22-2.64-5.19-3.49s-4.07-1.27-6.32-1.27
				C265.68,237.21,263.53,237.62,261.56,238.48z"/>
			<path class="st0" d="M332.91,225.1c2.77-1.7,6.04-2.56,9.81-2.56c4.39,0,6.58,1.12,6.58,3.36c0,0.18-0.02,0.54-0.06,1.08
				c-0.06,0.54-0.11,0.94-0.2,1.21l-0.82,5.78c-0.26,1.62-0.59,2.71-1,3.3c-0.41,0.58-1,0.87-1.82,0.87c-0.54,0-0.93-0.05-1.21-0.14
				c-2.14-0.53-3.94-0.8-5.37-0.8c-1.8,0-3.51,0.38-5.19,1.14c-1.65,0.76-3.1,1.81-4.37,3.16c-1.25,1.43-2.17,3.16-2.75,5.18
				c-0.58,2.02-0.87,4.68-0.87,8v23.39c0,2.06-0.24,3.34-0.74,3.83c-0.48,0.49-1.77,0.74-3.83,0.74h-7.12
				c-2.06,0-3.35-0.25-3.85-0.74c-0.48-0.49-0.72-1.77-0.72-3.83V229c0-2.06,0.24-3.34,0.72-3.83c0.5-0.49,1.78-0.74,3.85-0.74h7.12
				c2.06,0,3.35,0.25,3.83,0.74c0.5,0.49,0.74,1.77,0.74,3.83v4.3C327.7,229.54,330.12,226.81,332.91,225.1z"/>
			<path class="st0" d="M387.58,282.31c-3.05,1.48-6.6,2.22-10.63,2.22c-4.13,0-7.94-0.79-11.43-2.36
				c-3.49-1.56-6.52-3.74-9.07-6.51c-2.56-2.78-4.55-6.05-5.98-9.82c-1.43-3.76-2.16-7.88-2.16-12.37c0-4.39,0.72-8.47,2.16-12.23
				c1.43-3.76,3.42-7.04,5.98-9.82c2.55-2.78,5.56-4.95,9.01-6.51c3.44-1.57,7.19-2.36,11.23-2.36s7.55,0.74,10.56,2.22
				c2.99,1.48,5.93,3.88,8.79,7.19V229c0-2.06,0.26-3.34,0.74-3.83c0.5-0.49,1.77-0.74,3.83-0.74h7.01c2.14,0,3.46,0.25,3.96,0.74
				c0.48,0.49,0.74,1.77,0.74,3.83v49.08c0,2.06-0.26,3.34-0.74,3.83c-0.5,0.49-1.82,0.74-3.96,0.74h-7.01
				c-2.06,0-3.33-0.25-3.83-0.74c-0.48-0.49-0.74-1.77-0.74-3.83v-2.96C393.46,278.44,390.63,280.84,387.58,282.31z M375.08,238.48
				c-1.97,0.85-3.7,2.02-5.19,3.49c-1.47,1.48-2.64,3.21-3.49,5.18c-0.85,1.97-1.28,4.08-1.28,6.32s0.43,4.38,1.28,6.39
				c0.85,2.02,2.03,3.76,3.49,5.24c1.49,1.48,3.22,2.64,5.19,3.49c1.97,0.85,4.07,1.27,6.32,1.27c2.32,0,4.48-0.42,6.45-1.27
				c1.97-0.85,3.7-2.02,5.19-3.49c1.47-1.48,2.62-3.22,3.42-5.24c0.82-2.02,1.21-4.19,1.21-6.52c0-2.24-0.43-4.33-1.28-6.25
				c-0.84-1.92-2.01-3.63-3.49-5.11c-1.47-1.48-3.18-2.64-5.09-3.49c-1.93-0.85-4.01-1.27-6.26-1.27
				C379.2,237.21,377.05,237.62,375.08,238.48z"/>
			<path class="st0" d="M458.66,282.31c-3.05,1.48-6.6,2.22-10.63,2.22c-4.13,0-7.94-0.79-11.43-2.36
				c-3.49-1.56-6.52-3.74-9.07-6.51c-2.56-2.78-4.55-6.05-5.98-9.82c-1.43-3.76-2.16-7.88-2.16-12.37c0-4.39,0.72-8.47,2.16-12.23
				c1.43-3.76,3.42-7.04,5.98-9.82c2.55-2.78,5.56-4.95,9.01-6.51c3.44-1.57,7.19-2.36,11.23-2.36s7.55,0.74,10.56,2.22
				c2.99,1.48,5.93,3.88,8.79,7.19v-45.44c0-2.06,0.26-3.34,0.74-3.84c0.5-0.49,1.77-0.73,3.83-0.73h7.14
				c2.06,0,3.33,0.24,3.83,0.73c0.48,0.5,0.74,1.77,0.74,3.84v91.56c0,2.06-0.26,3.34-0.74,3.83c-0.5,0.49-1.77,0.74-3.83,0.74
				h-7.14c-2.06,0-3.33-0.25-3.83-0.74c-0.48-0.49-0.74-1.77-0.74-3.83v-2.96C464.53,278.44,461.7,280.84,458.66,282.31z
				 M446.15,238.48c-1.97,0.85-3.7,2.02-5.19,3.49c-1.47,1.48-2.64,3.21-3.49,5.18c-0.85,1.97-1.28,4.08-1.28,6.32
				s0.43,4.38,1.28,6.39s2.03,3.76,3.49,5.24c1.49,1.48,3.23,2.64,5.24,3.49c2.03,0.85,4.16,1.27,6.39,1.27
				c2.25,0,4.35-0.42,6.32-1.27c1.97-0.85,3.7-2.02,5.19-3.49c1.47-1.48,2.64-3.22,3.49-5.24c0.85-2.02,1.26-4.19,1.26-6.52
				c0-2.24-0.41-4.33-1.26-6.25c-0.85-1.92-2.03-3.63-3.49-5.11c-1.49-1.48-3.22-2.64-5.19-3.49c-1.97-0.85-4.07-1.27-6.32-1.27
				C450.27,237.21,448.12,237.62,446.15,238.48z"/>
			<path class="st0" d="M511.03,267.79c2.42,2.65,5.87,3.97,10.35,3.97c2.69,0,5.13-0.51,7.32-1.54c2.21-1.03,3.92-2.49,5.19-4.38
				c0.8-1.07,1.65-1.61,2.55-1.61h0.54c0.19,0,0.76,0.08,1.75,0.27l5.93,0.94c1.6,0.27,2.71,0.6,3.29,1.01
				c0.58,0.4,0.87,1.05,0.87,1.94c0,0.9-0.46,2.09-1.41,3.57c-0.95,1.48-2.04,2.84-3.29,4.1c-5.84,5.65-13.31,8.48-22.45,8.48
				c-4.76,0-9.03-0.74-12.84-2.22c-3.81-1.48-7.08-3.57-9.81-6.25c-2.75-2.69-4.85-5.94-6.32-9.75c-1.49-3.81-2.23-8.05-2.23-12.7
				c0-4.66,0.72-8.92,2.16-12.78s3.48-7.13,6.11-9.81c2.64-2.69,5.85-4.78,9.61-6.25c3.77-1.48,7.99-2.22,12.64-2.22
				c6.82,0,12.62,1.57,17.41,4.71c4.8,3.13,8.23,7.57,10.3,13.31c0.61,1.79,1.12,3.74,1.47,5.85c0.37,2.1,0.54,4.05,0.54,5.85
				c0,1.7-0.26,2.78-0.8,3.22c-0.54,0.46-1.84,0.68-3.9,0.68h-38.86C507.31,261.27,508.61,265.15,511.03,267.79z M521.38,234.24
				c-3.68,0-6.69,1.01-9.07,3.03c-2.38,2.02-3.92,4.86-4.65,8.54h27.56C533.44,238.1,528.82,234.24,521.38,234.24z"/>
		</g>
	</g>
	<path class="st1" d="M139.27,124.24V241.2c0,6.38-0.38,11.44-1.16,15.17c-0.81,3.72-2.26,7.33-4.42,10.8
		c-8.11,13.26-23.04,19.89-44.74,19.89c-14.76,0-26.42-3.23-35.05-9.7c-8.36-6.31-13.26-15.8-14.67-28.46
		c-0.24-1.9-0.36-6.08-0.36-12.56V72.6l-10.4,21.65c-1.49,3.08-3.39,4.6-5.72,4.6c-4.13,0-8.97-1.61-14.46-4.84
		C2.75,90.78,0,87.97,0,85.56c0-1.4,0.38-2.9,1.12-4.48l31.31-64.25c3.66-7.55,11.39-11.3,23.24-11.3c6.46,0,11.63,1.09,15.54,3.28
		c3.89,2.19,7.05,5.77,9.45,10.75l29.45,61.52c0.85,1.66,1.24,3.15,1.24,4.48c0,2.4-2.77,5.22-8.33,8.45
		c-5.62,3.23-10.44,4.84-14.41,4.84c-2.4,0-4.35-1.52-5.84-4.6L72.41,72.57v50.91c0.02,0.26,0.02,0.5,0.02,0.76v103.05
		c0,11.18,1.05,18.63,3.21,22.36c2.83,4.74,7.34,7.09,13.55,7.09c8.12,0,13.22-3.53,15.29-10.56c0.83-2.73,1.24-9.04,1.24-18.89
		V124.24c0-4.13,0.59-6.76,1.73-7.83c1.09-1.16,3.7-1.73,7.85-1.73h14.41c4.13,0,6.76,0.57,7.83,1.73
		C138.7,117.48,139.27,120.11,139.27,124.24z"/>
	<path class="st1" d="M194.2,274.76c0,4.14-0.59,6.76-1.75,7.83c-1.08,1.16-3.7,1.74-7.82,1.74h-14.42c-4.14,0-6.77-0.58-7.82-1.74
		c-1.17-1.08-1.75-3.69-1.75-7.83V124.25c0-4.14,0.58-6.76,1.75-7.83c1.06-1.15,3.68-1.74,7.82-1.74h31.08
		c12.34,0,21.82,1.82,28.45,5.47c7.79,4.39,13.72,10.94,17.77,19.64c3.57,7.79,5.35,16.16,5.35,25.11c0,12.93-3.4,23.82-10.18,32.68
		c-8.96,11.61-22.58,17.41-40.91,17.41c-2.23,0-4.76-0.17-7.56-0.5V274.76z M211.34,183.28c5.48-3.48,8.21-9.66,8.21-18.52
		c0-7.87-1.6-13.69-4.8-17.46c-3.18-3.77-8.14-5.66-14.85-5.66c-1.08,0-2.97,0.05-5.71,0.13v44.62
		C202.23,186.47,207.96,185.44,211.34,183.28z"/>
	<g>
		<path class="st2" d="M145.05,120.45v116.96c0,6.38-0.38,11.42-1.16,15.17c-0.81,3.72-2.26,7.33-4.42,10.8
			c-8.11,13.26-23.04,19.89-44.74,19.89c-14.76,0-26.42-3.23-35.05-9.7c-8.36-6.31-13.26-15.8-14.67-28.46
			c-0.24-1.9-0.36-6.08-0.36-12.56V68.82l-10.4,21.65c-1.49,3.08-3.39,4.6-5.72,4.6c-4.13,0-8.97-1.61-14.46-4.84
			C8.53,87,5.78,84.18,5.78,81.78c0-1.4,0.38-2.9,1.12-4.48l31.31-64.25C41.88,5.5,49.61,1.73,61.46,1.73
			c6.46,0,11.63,1.11,15.54,3.3c3.89,2.19,7.05,5.77,9.45,10.75L115.9,77.3c0.83,1.66,1.24,3.15,1.24,4.48
			c0,2.4-2.77,5.22-8.33,8.45c-5.63,3.23-10.44,4.84-14.41,4.84c-2.4,0-4.36-1.52-5.84-4.6L78.19,68.78v50.91
			c0.02,0.24,0.02,0.5,0.02,0.76v103.03c0,11.2,1.05,18.65,3.21,22.38c2.83,4.72,7.34,7.09,13.55,7.09
			c8.12,0,13.22-3.53,15.29-10.56c0.83-2.73,1.24-9.04,1.24-18.91V120.45c0-4.15,0.59-6.76,1.73-7.83c1.09-1.16,3.7-1.75,7.85-1.75
			h14.41c4.13,0,6.76,0.59,7.83,1.75C144.48,113.7,145.05,116.31,145.05,120.45z"/>
	</g>
	<path class="st2" d="M200.74,271.75c0,4.14-0.59,6.76-1.75,7.83c-1.08,1.16-3.7,1.74-7.82,1.74h-14.42c-4.14,0-6.77-0.58-7.82-1.74
		c-1.17-1.08-1.75-3.69-1.75-7.83V121.24c0-4.14,0.58-6.76,1.75-7.83c1.06-1.15,3.68-1.74,7.82-1.74h31.08
		c12.34,0,21.82,1.82,28.45,5.47c7.79,4.39,13.72,10.94,17.77,19.64c3.57,7.79,5.35,16.16,5.35,25.11c0,12.93-3.4,23.82-10.18,32.68
		c-8.96,11.61-22.58,17.41-40.91,17.41c-2.23,0-4.76-0.17-7.56-0.5V271.75z M217.87,180.27c5.48-3.48,8.21-9.66,8.21-18.52
		c0-7.87-1.6-13.69-4.8-17.46c-3.18-3.77-8.14-5.66-14.85-5.66c-1.08,0-2.97,0.05-5.71,0.13v44.62
		C208.77,183.46,214.49,182.43,217.87,180.27z"/>
</g>
</svg>
