<?xml version="1.0" encoding="utf-8"?>
<!-- Generator: Adobe Illustrator 23.0.1, SVG Export Plug-In . SVG Version: 6.00 Build 0)  -->
<svg version="1.1" id="Layer_1" xmlns="http://www.w3.org/2000/svg" xmlns:xlink="http://www.w3.org/1999/xlink" x="0px" y="0px"
	 viewBox="0 0 720 720" style="enable-background:new 0 0 720 720;" xml:space="preserve">
<style type="text/css">
	.st0{fill:#878E94;}
	.st1{fill:#00B085;}
</style>
<g>
	<g>
		<path class="st0" d="M221.19,656.15c-4.3,2.12-9.4,3.18-15.31,3.18c-5.78,0-11.07-1.06-15.88-3.18c-4.81-2.12-8.98-5.1-12.51-8.95
			c-3.53-3.85-6.29-8.44-8.28-13.77c-1.99-5.33-2.98-11.13-2.98-17.42c0-6.55,1.03-12.58,3.08-18.1c2.05-5.52,4.91-10.3,8.57-14.34
			c3.66-4.04,7.96-7.22,12.9-9.53c4.94-2.31,10.36-3.46,16.27-3.46c5.78,0,10.75,1.03,14.92,3.08c4.17,2.05,8.25,5.52,12.23,10.4
			v-4.24c0-2.95,0.35-4.78,1.06-5.49s2.53-1.06,5.49-1.06h10.2c2.95,0,4.78,0.35,5.49,1.06c0.71,0.71,1.06,2.54,1.06,5.49v73.74
			c0,4.24-0.16,7.96-0.48,11.17c-0.32,3.21-0.84,6.1-1.54,8.66c-0.71,2.57-1.67,4.91-2.89,7.03c-1.22,2.12-2.73,4.2-4.52,6.26
			c-4.11,4.88-9.14,8.54-15.11,10.97c-5.97,2.44-12.61,3.66-19.93,3.66c-9.24,0-17.36-1.89-24.35-5.68
			c-6.99-3.79-12.48-9.34-16.46-16.65c-1.8-2.95-2.7-5.9-2.7-8.86c0-1.41,0.48-2.37,1.44-2.89c0.96-0.51,2.73-0.77,5.29-0.77h11.94
			c2.44,0,3.98,0.13,4.62,0.38c0.64,0.26,1.28,0.96,1.93,2.12c0.77,1.8,1.48,3.24,2.12,4.33c0.64,1.09,1.25,2.02,1.83,2.79
			c0.58,0.77,1.25,1.38,2.02,1.83c0.77,0.45,1.67,0.93,2.7,1.44c3.46,1.41,6.8,2.12,10.01,2.12c2.95,0,5.81-0.55,8.57-1.64
			c2.76-1.09,5.1-2.6,7.03-4.52c3.47-3.72,5.2-9.5,5.2-17.33v-12.51C229.82,650.47,225.49,654.03,221.19,656.15z M204.53,593.39
			c-2.82,1.22-5.29,2.89-7.41,5.01c-2.12,2.12-3.79,4.59-5.01,7.41c-1.22,2.82-1.83,5.84-1.83,9.05s0.61,6.26,1.83,9.14
			c1.22,2.89,2.89,5.39,5.01,7.51c2.12,2.12,4.62,3.79,7.51,5.01c2.89,1.22,5.94,1.83,9.15,1.83s6.22-0.61,9.05-1.83
			c2.82-1.22,5.29-2.89,7.41-5.01c2.12-2.12,3.79-4.62,5.01-7.51c1.22-2.89,1.83-6,1.83-9.34c0-3.21-0.61-6.19-1.83-8.95
			s-2.89-5.2-5.01-7.32c-2.12-2.12-4.59-3.79-7.41-5.01c-2.82-1.22-5.84-1.83-9.05-1.83C210.44,591.56,207.36,592.17,204.53,593.39z
			"/>
		<path class="st0" d="M306.76,574.23c3.98-2.44,8.66-3.66,14.05-3.66c6.29,0,9.43,1.6,9.43,4.81c0,0.26-0.03,0.77-0.1,1.54
			c-0.06,0.77-0.16,1.35-0.29,1.73l-1.15,8.28c-0.39,2.31-0.87,3.88-1.44,4.72c-0.58,0.83-1.44,1.25-2.6,1.25
			c-0.77,0-1.35-0.06-1.73-0.19c-3.08-0.77-5.65-1.15-7.7-1.15c-2.57,0-5.04,0.55-7.41,1.64c-2.37,1.09-4.46,2.6-6.26,4.53
			c-1.8,2.05-3.11,4.52-3.95,7.41s-1.25,6.71-1.25,11.46v33.5c0,2.95-0.35,4.78-1.06,5.49c-0.71,0.71-2.54,1.06-5.49,1.06h-10.2
			c-2.95,0-4.78-0.35-5.49-1.06c-0.71-0.71-1.06-2.54-1.06-5.49v-70.27c0-2.95,0.35-4.78,1.06-5.49c0.71-0.71,2.54-1.06,5.49-1.06
			h10.2c2.95,0,4.78,0.35,5.49,1.06c0.71,0.71,1.06,2.54,1.06,5.49v6.16C299.31,580.58,302.78,576.67,306.76,574.23z"/>
		<path class="st0" d="M385.11,656.15c-4.36,2.12-9.43,3.18-15.21,3.18c-5.9,0-11.36-1.12-16.36-3.37c-5.01-2.25-9.34-5.36-13-9.34
			c-3.66-3.98-6.51-8.66-8.57-14.05c-2.05-5.39-3.08-11.29-3.08-17.71c0-6.29,1.03-12.13,3.08-17.52
			c2.05-5.39,4.91-10.07,8.57-14.05c3.66-3.98,7.96-7.09,12.9-9.34c4.94-2.25,10.3-3.37,16.08-3.37c5.77,0,10.81,1.06,15.11,3.18
			c4.3,2.12,8.5,5.55,12.61,10.3v-4.24c0-2.95,0.35-4.78,1.06-5.49c0.71-0.71,2.54-1.06,5.49-1.06h10.01c3.08,0,4.97,0.35,5.68,1.06
			c0.71,0.71,1.06,2.54,1.06,5.49v70.27c0,2.95-0.35,4.78-1.06,5.49c-0.71,0.71-2.6,1.06-5.68,1.06h-10.01
			c-2.95,0-4.78-0.35-5.49-1.06c-0.71-0.71-1.06-2.54-1.06-5.49v-4.24C393.51,650.6,389.47,654.03,385.11,656.15z M367.2,593.39
			c-2.82,1.22-5.29,2.89-7.41,5.01c-2.12,2.12-3.79,4.59-5.01,7.41c-1.22,2.82-1.83,5.84-1.83,9.05s0.61,6.26,1.83,9.14
			c1.22,2.89,2.89,5.39,5.01,7.51c2.12,2.12,4.59,3.79,7.41,5.01c2.82,1.22,5.84,1.83,9.05,1.83c3.34,0,6.42-0.61,9.24-1.83
			c2.82-1.22,5.29-2.89,7.41-5.01c2.12-2.12,3.76-4.62,4.91-7.51c1.15-2.89,1.73-6,1.73-9.34c0-3.21-0.61-6.19-1.83-8.95
			c-1.22-2.76-2.89-5.2-5.01-7.32c-2.12-2.12-4.56-3.79-7.32-5.01c-2.76-1.22-5.74-1.83-8.95-1.83
			C373.11,591.56,370.03,592.17,367.2,593.39z"/>
		<path class="st0" d="M486.94,656.15c-4.36,2.12-9.43,3.18-15.21,3.18c-5.9,0-11.36-1.12-16.36-3.37
			c-5.01-2.25-9.34-5.36-12.99-9.34c-3.66-3.98-6.51-8.66-8.57-14.05c-2.05-5.39-3.08-11.29-3.08-17.71
			c0-6.29,1.03-12.13,3.08-17.52c2.05-5.39,4.91-10.07,8.57-14.05c3.66-3.98,7.96-7.09,12.9-9.34c4.94-2.25,10.3-3.37,16.08-3.37
			c5.78,0,10.81,1.06,15.11,3.18c4.3,2.12,8.5,5.55,12.61,10.3v-65.07c0-2.95,0.35-4.78,1.06-5.49c0.71-0.71,2.54-1.06,5.49-1.06
			h10.2c2.95,0,4.78,0.35,5.49,1.06c0.71,0.71,1.06,2.54,1.06,5.49v131.11c0,2.95-0.35,4.78-1.06,5.49
			c-0.71,0.71-2.54,1.06-5.49,1.06h-10.2c-2.95,0-4.78-0.35-5.49-1.06c-0.71-0.71-1.06-2.54-1.06-5.49v-4.24
			C495.35,650.6,491.31,654.03,486.94,656.15z M469.04,593.39c-2.82,1.22-5.29,2.89-7.41,5.01c-2.12,2.12-3.79,4.59-5,7.41
			c-1.22,2.82-1.83,5.84-1.83,9.05s0.61,6.26,1.83,9.14c1.22,2.89,2.89,5.39,5,7.51c2.12,2.12,4.62,3.79,7.51,5.01
			c2.89,1.22,5.94,1.83,9.15,1.83c3.21,0,6.22-0.61,9.05-1.83s5.29-2.89,7.41-5.01c2.12-2.12,3.79-4.62,5.01-7.51
			c1.22-2.89,1.83-6,1.83-9.34c0-3.21-0.61-6.19-1.83-8.95c-1.22-2.76-2.89-5.2-5.01-7.32c-2.12-2.12-4.59-3.79-7.41-5.01
			c-2.82-1.22-5.84-1.83-9.05-1.83C474.94,591.56,471.86,592.17,469.04,593.39z"/>
		<path class="st0" d="M562.02,635.36c3.47,3.79,8.41,5.68,14.82,5.68c3.85,0,7.35-0.74,10.49-2.21c3.14-1.48,5.61-3.56,7.41-6.26
			c1.15-1.54,2.37-2.31,3.66-2.31h0.77c0.26,0,1.09,0.13,2.5,0.38l8.47,1.35c2.31,0.38,3.88,0.87,4.72,1.44
			c0.83,0.58,1.25,1.51,1.25,2.79c0,1.28-0.67,2.98-2.02,5.1c-1.35,2.12-2.92,4.08-4.72,5.87c-8.34,8.09-19.06,12.13-32.15,12.13
			c-6.8,0-12.93-1.06-18.39-3.18c-5.46-2.12-10.14-5.1-14.05-8.95c-3.92-3.85-6.93-8.5-9.05-13.96c-2.12-5.45-3.18-11.52-3.18-18.19
			c0-6.67,1.03-12.77,3.08-18.29c2.05-5.52,4.97-10.2,8.76-14.05c3.79-3.85,8.37-6.83,13.77-8.95c5.39-2.12,11.42-3.18,18.1-3.18
			c9.76,0,18.07,2.25,24.93,6.74c6.87,4.49,11.78,10.85,14.73,19.06c0.9,2.57,1.6,5.36,2.12,8.37c0.51,3.02,0.77,5.81,0.77,8.37
			c0,2.44-0.38,3.98-1.15,4.62c-0.77,0.64-2.63,0.96-5.58,0.96h-55.64C556.69,626.02,558.55,631.57,562.02,635.36z M576.84,587.32
			c-5.26,0-9.59,1.45-12.99,4.33c-3.4,2.89-5.62,6.96-6.64,12.23h39.47C594.11,592.84,587.5,587.32,576.84,587.32z"/>
	</g>
</g>
<g>
	<path class="st1" d="M331.27,218.14h-26.28c-7.56,0-12.34,1.07-14.31,3.17c-2.1,1.97-3.15,6.73-3.15,14.29V423.6
		c0,17.99-0.78,29.48-2.27,34.47c-3.8,12.85-13.09,19.28-27.91,19.28c-11.33,0-19.57-4.31-24.72-12.94
		c-3.93-6.8-5.87-20.4-5.87-40.81V235.61c0-0.8-0.02-1.55-0.04-2.28v-92.02l18.93,39.59c2.71,5.59,6.27,8.39,10.65,8.39
		c7.26,0,16.04-2.95,26.31-8.83c10.14-5.9,15.19-11.04,15.19-15.43c0-2.42-0.75-5.14-2.27-8.16L241.78,44.62
		C237.4,35.55,231.64,29,224.55,25c-7.12-4-16.55-6-28.35-6c-21.63,0-35.74,6.87-42.42,20.63L96.65,156.87
		c-1.36,2.87-2.03,5.6-2.03,8.16c0,4.39,5.02,9.53,15.09,15.43c10.04,5.88,18.85,8.83,26.42,8.83c4.24,0,7.7-2.8,10.41-8.39
		l19-39.56v93.52c0,0.25-0.01,0.49-0.01,0.75v204.54c0,11.8,0.24,19.43,0.68,22.91c2.58,23.13,11.5,40.44,26.75,51.93
		c15.73,11.8,37.03,17.68,63.95,17.68c39.61,0,66.83-12.09,81.62-36.28c3.93-6.34,6.61-12.92,8.07-19.72
		c1.42-6.82,2.14-16.04,2.14-27.67V235.61c0-7.56-1.05-12.33-3.15-14.29C343.61,219.21,338.83,218.14,331.27,218.14z"/>
	<path class="st1" d="M546.18,263.95c-7.39-15.87-18.21-27.82-32.42-35.83c-12.11-6.66-29.4-9.99-51.91-9.99h-56.7
		c-7.56,0-12.34,1.07-14.28,3.17c-2.14,1.97-3.19,6.73-3.19,14.29v274.61c0,7.56,1.05,12.33,3.19,14.29
		c1.93,2.12,6.71,3.17,14.28,3.17h26.31c7.53,0,12.31-1.05,14.28-3.17c2.1-1.97,3.19-6.73,3.19-14.29V400.24
		c5.12,0.61,9.73,0.92,13.8,0.92c33.43,0,58.29-10.58,74.63-31.76c12.38-16.17,18.58-36.05,18.58-59.63
		C555.95,293.44,552.69,278.16,546.18,263.95z M480.19,343.32c-6.17,3.93-16.62,5.82-31.26,5.68v-81.42
		c4.98-0.15,8.44-0.24,10.41-0.24c12.24,0,21.29,3.44,27.09,10.33c5.83,6.88,8.75,17.5,8.75,31.86
		C495.18,325.7,490.2,336.98,480.19,343.32z"/>
</g>
</svg>
