<?xml version="1.0" encoding="utf-8"?>
<!-- Generator: Adobe Illustrator 23.0.2, SVG Export Plug-In . SVG Version: 6.00 Build 0)  -->
<svg version="1.1" id="Layer_1" xmlns="http://www.w3.org/2000/svg" xmlns:xlink="http://www.w3.org/1999/xlink" x="0px" y="0px"
	 viewBox="0 0 518.91 685.42" style="enable-background:new 0 0 518.91 685.42;" xml:space="preserve">
<style type="text/css">
	.st0{fill:#878E94;}
	.st1{fill:#00B085;}
	.st2{fill:none;stroke:#3C4344;stroke-width:6.2426;stroke-linecap:round;stroke-linejoin:round;stroke-miterlimit:10;}
</style>
<g>
	<g>
		<g>
			<path class="st0" d="M125.29,640.73c-4.26,2.1-9.31,3.14-15.15,3.14c-5.72,0-10.96-1.05-15.72-3.14
				c-4.76-2.1-8.89-5.05-12.39-8.86c-3.49-3.81-6.22-8.35-8.19-13.62c-1.97-5.27-2.95-11.02-2.95-17.25
				c0-6.48,1.02-12.45,3.05-17.91c2.03-5.46,4.86-10.19,8.48-14.2c3.62-4,7.88-7.15,12.77-9.43c4.89-2.29,10.26-3.43,16.1-3.43
				c5.72,0,10.64,1.02,14.77,3.05c4.13,2.03,8.16,5.46,12.1,10.29v-4.19c0-2.92,0.35-4.73,1.05-5.43c0.7-0.7,2.51-1.05,5.43-1.05
				h10.1c2.92,0,4.73,0.35,5.43,1.05c0.7,0.7,1.05,2.51,1.05,5.43v72.98c0,4.19-0.16,7.87-0.48,11.05
				c-0.32,3.18-0.83,6.04-1.52,8.58c-0.7,2.54-1.65,4.86-2.86,6.95c-1.21,2.1-2.7,4.16-4.48,6.19c-4.06,4.83-9.05,8.45-14.96,10.86
				c-5.91,2.41-12.48,3.62-19.72,3.62c-9.15,0-17.18-1.87-24.11-5.62c-6.92-3.75-12.35-9.24-16.29-16.48
				c-1.78-2.92-2.67-5.84-2.67-8.77c0-1.4,0.48-2.35,1.43-2.86c0.95-0.51,2.7-0.76,5.24-0.76H92.6c2.41,0,3.94,0.13,4.57,0.38
				c0.64,0.25,1.27,0.95,1.91,2.1c0.76,1.78,1.46,3.21,2.1,4.29c0.64,1.08,1.24,2,1.81,2.76s1.24,1.37,2,1.81
				c0.76,0.45,1.65,0.92,2.67,1.43c3.43,1.4,6.73,2.1,9.91,2.1c2.92,0,5.75-0.54,8.48-1.62c2.73-1.08,5.05-2.57,6.95-4.48
				c3.43-3.68,5.15-9.4,5.15-17.15v-12.39C133.83,635.11,129.54,638.64,125.29,640.73z M108.8,578.61
				c-2.79,1.21-5.24,2.86-7.34,4.95c-2.1,2.1-3.75,4.54-4.95,7.34c-1.21,2.8-1.81,5.78-1.81,8.96s0.6,6.19,1.81,9.05
				c1.21,2.86,2.86,5.34,4.95,7.43c2.1,2.1,4.57,3.75,7.43,4.95c2.86,1.21,5.88,1.81,9.05,1.81s6.16-0.6,8.96-1.81
				c2.8-1.21,5.24-2.86,7.34-4.95c2.1-2.1,3.75-4.57,4.95-7.43c1.21-2.86,1.81-5.94,1.81-9.24c0-3.18-0.6-6.13-1.81-8.86
				s-2.86-5.15-4.95-7.24s-4.54-3.75-7.34-4.95c-2.8-1.21-5.78-1.81-8.96-1.81C114.65,576.8,111.6,577.4,108.8,578.61z"/>
			<path class="st0" d="M209.99,559.65c3.94-2.41,8.58-3.62,13.91-3.62c6.22,0,9.34,1.59,9.34,4.76c0,0.25-0.03,0.76-0.09,1.52
				c-0.06,0.76-0.16,1.33-0.29,1.71l-1.14,8.19c-0.38,2.29-0.86,3.84-1.43,4.67c-0.57,0.83-1.43,1.24-2.57,1.24
				c-0.76,0-1.33-0.06-1.71-0.19c-3.05-0.76-5.59-1.14-7.62-1.14c-2.54,0-4.99,0.54-7.34,1.62c-2.35,1.08-4.42,2.57-6.19,4.48
				c-1.78,2.03-3.08,4.48-3.91,7.34c-0.82,2.86-1.24,6.64-1.24,11.34v33.16c0,2.92-0.35,4.73-1.05,5.43
				c-0.7,0.7-2.51,1.05-5.43,1.05h-10.1c-2.92,0-4.73-0.35-5.43-1.05c-0.7-0.7-1.05-2.51-1.05-5.43v-69.55
				c0-2.92,0.35-4.73,1.05-5.43c0.7-0.7,2.51-1.05,5.43-1.05h10.1c2.92,0,4.73,0.35,5.43,1.05c0.7,0.7,1.05,2.51,1.05,5.43v6.1
				C202.63,565.94,206.06,562.06,209.99,559.65z"/>
			<path class="st0" d="M287.55,640.73c-4.32,2.1-9.34,3.14-15.05,3.14c-5.84,0-11.24-1.11-16.2-3.33
				c-4.95-2.22-9.24-5.3-12.86-9.24c-3.62-3.94-6.45-8.57-8.48-13.91c-2.03-5.34-3.05-11.18-3.05-17.53
				c0-6.22,1.02-12.01,3.05-17.34c2.03-5.33,4.86-9.97,8.48-13.91c3.62-3.94,7.87-7.02,12.77-9.24c4.89-2.22,10.19-3.33,15.91-3.33
				c5.72,0,10.7,1.05,14.96,3.14c4.26,2.1,8.42,5.49,12.48,10.19v-4.19c0-2.92,0.35-4.73,1.05-5.43c0.7-0.7,2.51-1.05,5.43-1.05
				h9.91c3.05,0,4.92,0.35,5.62,1.05c0.7,0.7,1.05,2.51,1.05,5.43v69.55c0,2.92-0.35,4.73-1.05,5.43c-0.7,0.7-2.57,1.05-5.62,1.05
				h-9.91c-2.92,0-4.73-0.35-5.43-1.05c-0.7-0.7-1.05-2.51-1.05-5.43v-4.19C295.88,635.24,291.87,638.64,287.55,640.73z
				 M269.83,578.61c-2.79,1.21-5.24,2.86-7.34,4.95c-2.1,2.1-3.75,4.54-4.95,7.34s-1.81,5.78-1.81,8.96s0.6,6.19,1.81,9.05
				c1.21,2.86,2.86,5.34,4.95,7.43c2.1,2.1,4.54,3.75,7.34,4.95c2.8,1.21,5.78,1.81,8.96,1.81c3.3,0,6.35-0.6,9.15-1.81
				c2.8-1.21,5.24-2.86,7.34-4.95c2.1-2.1,3.72-4.57,4.86-7.43c1.14-2.86,1.72-5.94,1.72-9.24c0-3.18-0.6-6.13-1.81-8.86
				s-2.86-5.15-4.95-7.24c-2.1-2.1-4.51-3.75-7.24-4.95c-2.73-1.21-5.68-1.81-8.86-1.81C275.68,576.8,272.63,577.4,269.83,578.61z"
				/>
			<path class="st0" d="M388.37,640.73c-4.32,2.1-9.34,3.14-15.05,3.14c-5.84,0-11.24-1.11-16.2-3.33
				c-4.95-2.22-9.24-5.3-12.86-9.24c-3.62-3.94-6.45-8.57-8.48-13.91c-2.03-5.34-3.05-11.18-3.05-17.53
				c0-6.22,1.02-12.01,3.05-17.34c2.03-5.33,4.86-9.97,8.48-13.91c3.62-3.94,7.88-7.02,12.77-9.24c4.89-2.22,10.19-3.33,15.91-3.33
				c5.72,0,10.7,1.05,14.96,3.14c4.26,2.1,8.42,5.49,12.48,10.19v-64.41c0-2.92,0.35-4.73,1.05-5.43c0.7-0.7,2.51-1.05,5.43-1.05
				h10.1c2.92,0,4.73,0.35,5.43,1.05c0.7,0.7,1.05,2.51,1.05,5.43v129.77c0,2.92-0.35,4.73-1.05,5.43c-0.7,0.7-2.51,1.05-5.43,1.05
				h-10.1c-2.92,0-4.73-0.35-5.43-1.05c-0.7-0.7-1.05-2.51-1.05-5.43v-4.19C396.69,635.24,392.69,638.64,388.37,640.73z
				 M370.65,578.61c-2.79,1.21-5.24,2.86-7.34,4.95c-2.1,2.1-3.75,4.54-4.95,7.34s-1.81,5.78-1.81,8.96s0.6,6.19,1.81,9.05
				c1.21,2.86,2.86,5.34,4.95,7.43c2.1,2.1,4.57,3.75,7.43,4.95c2.86,1.21,5.88,1.81,9.05,1.81c3.18,0,6.16-0.6,8.96-1.81
				c2.8-1.21,5.24-2.86,7.34-4.95c2.1-2.1,3.75-4.57,4.95-7.43c1.21-2.86,1.81-5.94,1.81-9.24c0-3.18-0.6-6.13-1.81-8.86
				s-2.86-5.15-4.95-7.24c-2.1-2.1-4.54-3.75-7.34-4.95c-2.8-1.21-5.78-1.81-8.96-1.81C376.49,576.8,373.44,577.4,370.65,578.61z"/>
			<path class="st0" d="M462.69,620.15c3.43,3.75,8.32,5.62,14.67,5.62c3.81,0,7.27-0.73,10.39-2.19c3.11-1.46,5.56-3.53,7.34-6.19
				c1.14-1.52,2.35-2.29,3.62-2.29h0.76c0.25,0,1.08,0.13,2.48,0.38l8.39,1.33c2.29,0.38,3.84,0.86,4.67,1.43
				c0.83,0.57,1.24,1.49,1.24,2.76c0,1.27-0.67,2.95-2,5.05s-2.89,4.03-4.67,5.81c-8.26,8-18.87,12.01-31.82,12.01
				c-6.73,0-12.8-1.05-18.2-3.14c-5.4-2.1-10.04-5.05-13.91-8.86c-3.88-3.81-6.86-8.42-8.96-13.81c-2.1-5.4-3.14-11.4-3.14-18.01
				c0-6.61,1.02-12.64,3.05-18.1c2.03-5.46,4.92-10.1,8.67-13.91c3.75-3.81,8.29-6.77,13.62-8.86c5.34-2.1,11.31-3.14,17.91-3.14
				c9.65,0,17.88,2.22,24.68,6.67c6.8,4.45,11.65,10.74,14.58,18.86c0.89,2.54,1.59,5.3,2.1,8.29s0.76,5.75,0.76,8.29
				c0,2.41-0.38,3.94-1.14,4.57c-0.76,0.63-2.6,0.95-5.53,0.95h-55.07C457.42,610.91,459.26,616.41,462.69,620.15z M477.37,572.61
				c-5.21,0-9.49,1.43-12.86,4.29c-3.37,2.86-5.56,6.89-6.57,12.1h39.06C494.45,578.07,487.91,572.61,477.37,572.61z"/>
		</g>
	</g>
	<path class="st1" d="M251.54,224.39v211.25c0,11.52-0.69,20.66-2.09,27.41c-1.47,6.71-4.09,13.23-7.99,19.51
		c-14.64,23.94-41.61,35.93-80.81,35.93c-26.66,0-47.72-5.84-63.3-17.51c-15.11-11.39-23.94-28.53-26.5-51.41
		c-0.44-3.43-0.66-10.99-0.66-22.69V131.13l-18.79,39.11c-2.68,5.56-6.12,8.3-10.33,8.3c-7.46,0-16.2-2.9-26.13-8.74
		C4.96,163.97,0,158.88,0,154.54c0-2.53,0.69-5.24,2.03-8.08L58.59,30.41C65.2,16.77,79.16,9.99,100.57,9.99
		c11.67,0,21.01,1.97,28.06,5.93c7.02,3.96,12.73,10.43,17.07,19.41l53.19,111.12c1.53,3,2.25,5.68,2.25,8.08
		c0,4.34-4.99,9.43-15.04,15.26c-10.14,5.84-18.85,8.74-26.03,8.74c-4.34,0-7.87-2.75-10.55-8.3l-18.73-39.17v91.95
		c0.03,0.47,0.03,0.91,0.03,1.37v186.12c0,20.19,1.9,33.65,5.81,40.39c5.12,8.55,13.27,12.8,24.47,12.8
		c14.67,0,23.88-6.37,27.62-19.07c1.5-4.93,2.25-16.32,2.25-34.12V224.39c0-7.46,1.06-12.2,3.12-14.14
		c1.97-2.09,6.68-3.12,14.17-3.12h26.03c7.46,0,12.2,1.03,14.14,3.12C250.52,212.19,251.54,216.93,251.54,224.39z"/>
	<path class="st1" d="M350.75,496.26c0,7.49-1.07,12.2-3.16,14.15c-1.95,2.1-6.68,3.14-14.13,3.14h-26.05
		c-7.49,0-12.22-1.04-14.13-3.14c-2.11-1.95-3.16-6.66-3.16-14.15V224.41c0-7.49,1.04-12.2,3.16-14.15
		c1.91-2.08,6.65-3.14,14.13-3.14h56.13c22.29,0,39.41,3.29,51.39,9.89c14.06,7.92,24.77,19.75,32.09,35.46
		c6.45,14.06,9.67,29.19,9.67,45.35c0,23.35-6.14,43.02-18.4,59.03c-16.18,20.96-40.79,31.44-73.88,31.44
		c-4.03,0-8.59-0.3-13.66-0.91V496.26z M381.7,331.04c9.9-6.28,14.84-17.44,14.84-33.45c0-14.22-2.89-24.72-8.66-31.54
		c-5.74-6.81-14.7-10.22-26.82-10.22c-1.95,0-5.37,0.08-10.31,0.23v80.6C365.25,336.79,375.59,334.93,381.7,331.04z"/>
	<g>
		<path class="st2" d="M261.98,217.55V428.8c0,11.52-0.69,20.63-2.09,27.41c-1.47,6.71-4.09,13.23-7.99,19.51
			c-14.64,23.94-41.61,35.93-80.81,35.93c-26.66,0-47.72-5.84-63.3-17.51c-15.11-11.39-23.94-28.53-26.5-51.41
			c-0.44-3.43-0.66-10.99-0.66-22.69V124.29L61.85,163.4c-2.68,5.56-6.12,8.3-10.33,8.3c-7.46,0-16.2-2.9-26.13-8.74
			c-9.99-5.84-14.95-10.92-14.95-15.26c0-2.53,0.69-5.24,2.03-8.08L69.02,23.57C75.64,9.93,89.59,3.12,111.01,3.12
			c11.67,0,21.01,2,28.06,5.96c7.02,3.96,12.73,10.43,17.07,19.41l53.19,111.12c1.5,3,2.25,5.68,2.25,8.08
			c0,4.34-4.99,9.43-15.04,15.26c-10.18,5.84-18.85,8.74-26.03,8.74c-4.34,0-7.87-2.75-10.55-8.3l-18.73-39.17v91.95
			c0.03,0.44,0.03,0.91,0.03,1.37v186.09c0,20.23,1.9,33.68,5.81,40.42c5.12,8.52,13.27,12.8,24.47,12.8
			c14.67,0,23.88-6.37,27.62-19.07c1.5-4.93,2.25-16.32,2.25-34.15V217.55c0-7.49,1.06-12.2,3.12-14.14
			c1.97-2.09,6.68-3.15,14.17-3.15h26.03c7.46,0,12.2,1.06,14.14,3.15C260.95,205.35,261.98,210.06,261.98,217.55z"/>
	</g>
	<path class="st2" d="M362.56,490.82c0,7.49-1.07,12.2-3.16,14.15c-1.95,2.1-6.68,3.14-14.13,3.14h-26.05
		c-7.49,0-12.22-1.04-14.13-3.14c-2.11-1.95-3.16-6.66-3.16-14.15V218.97c0-7.49,1.04-12.2,3.16-14.15
		c1.91-2.08,6.65-3.14,14.13-3.14h56.13c22.29,0,39.41,3.29,51.39,9.89c14.06,7.92,24.77,19.75,32.09,35.46
		c6.45,14.06,9.67,29.19,9.67,45.35c0,23.35-6.14,43.02-18.4,59.03c-16.18,20.96-40.79,31.44-73.88,31.44
		c-4.03,0-8.59-0.3-13.66-0.91V490.82z M393.51,325.6c9.9-6.28,14.84-17.44,14.84-33.45c0-14.22-2.89-24.72-8.66-31.54
		c-5.74-6.81-14.7-10.22-26.82-10.22c-1.95,0-5.37,0.08-10.31,0.23v80.6C377.06,331.35,387.4,329.49,393.51,325.6z"/>
</g>
</svg>
