<svg enable-background="new 0 0 568 338" viewBox="0 0 568 338" xmlns="http://www.w3.org/2000/svg"><g fill="#878e94"><path d="m269.17 296.43c-3.02 1.49-6.6 2.23-10.74 2.23-4.05 0-7.77-.74-11.15-2.23s-6.31-3.58-8.78-6.28c-2.48-2.7-4.41-5.92-5.81-9.66s-2.09-7.82-2.09-12.23c0-4.59.72-8.83 2.16-12.7s3.45-7.23 6.01-10.07c2.57-2.84 5.59-5.07 9.05-6.69 3.47-1.62 7.27-2.43 11.42-2.43 4.05 0 7.54.72 10.47 2.16s5.79 3.87 8.58 7.3v-2.97c0-2.07.25-3.36.74-3.85.5-.5 1.78-.74 3.85-.74h7.16c2.07 0 3.36.25 3.85.74.5.5.74 1.78.74 3.85v51.76c0 2.97-.11 5.59-.34 7.84s-.59 4.28-1.08 6.08c-.5 1.8-1.17 3.45-2.03 4.93-.86 1.49-1.91 2.95-3.18 4.39-2.88 3.42-6.42 5.99-10.61 7.7s-8.85 2.57-13.99 2.57c-6.49 0-12.18-1.33-17.09-3.99s-8.76-6.55-11.55-11.69c-1.26-2.07-1.89-4.14-1.89-6.22 0-.99.34-1.67 1.01-2.03.68-.36 1.91-.54 3.72-.54h8.38c1.71 0 2.79.09 3.24.27s.9.68 1.35 1.49c.54 1.26 1.04 2.27 1.49 3.04s.88 1.42 1.28 1.96c.41.54.88.97 1.42 1.28.54.32 1.17.65 1.89 1.01 2.43.99 4.77 1.49 7.03 1.49 2.07 0 4.08-.38 6.01-1.15 1.94-.77 3.58-1.82 4.93-3.18 2.43-2.61 3.65-6.67 3.65-12.16v-8.78c-3.04 3.51-6.08 6.01-9.1 7.5zm-11.69-44.05c-1.98.86-3.72 2.03-5.2 3.51-1.49 1.49-2.66 3.22-3.51 5.2s-1.28 4.1-1.28 6.35.43 4.39 1.28 6.42c.86 2.03 2.03 3.78 3.51 5.27 1.49 1.49 3.24 2.66 5.27 3.51 2.03.86 4.17 1.28 6.42 1.28s4.37-.43 6.35-1.28c1.98-.86 3.72-2.03 5.2-3.51 1.49-1.49 2.66-3.24 3.51-5.27.86-2.03 1.28-4.21 1.28-6.55 0-2.25-.43-4.35-1.28-6.28-.86-1.94-2.03-3.65-3.51-5.13-1.49-1.49-3.22-2.66-5.2-3.51-1.98-.86-4.1-1.28-6.35-1.28-2.35-.02-4.51.41-6.49 1.27z"/><path d="m329.23 238.93c2.79-1.71 6.08-2.57 9.87-2.57 4.41 0 6.62 1.13 6.62 3.38 0 .18-.02.54-.07 1.08-.04.54-.11.95-.2 1.22l-.81 5.81c-.27 1.62-.61 2.73-1.01 3.31-.41.59-1.01.88-1.82.88-.54 0-.95-.04-1.22-.13-2.16-.54-3.96-.81-5.41-.81-1.8 0-3.54.38-5.2 1.15-1.67.77-3.13 1.83-4.39 3.18-1.26 1.44-2.18 3.18-2.77 5.2-.59 2.03-.88 4.71-.88 8.04v23.51c0 2.07-.25 3.36-.74 3.85s-1.78.74-3.85.74h-7.16c-2.07 0-3.36-.25-3.85-.74-.5-.5-.74-1.78-.74-3.85v-49.32c0-2.07.25-3.36.74-3.85.5-.5 1.78-.74 3.85-.74h7.16c2.07 0 3.36.25 3.85.74.5.5.74 1.78.74 3.85v4.32c2.07-3.79 4.5-6.54 7.29-8.25z"/><path d="m384.23 296.43c-3.06 1.49-6.62 2.23-10.68 2.23-4.14 0-7.97-.79-11.49-2.36-3.51-1.58-6.55-3.76-9.12-6.55s-4.57-6.08-6.01-9.86-2.16-7.93-2.16-12.43c0-4.42.72-8.51 2.16-12.3 1.44-3.78 3.45-7.07 6.01-9.86s5.58-4.98 9.05-6.55 7.23-2.37 11.28-2.37 7.59.74 10.61 2.23 5.97 3.9 8.85 7.23v-2.97c0-2.07.25-3.36.74-3.85.5-.5 1.78-.74 3.85-.74h7.03c2.16 0 3.49.25 3.99.74.5.5.74 1.78.74 3.85v49.32c0 2.07-.25 3.36-.74 3.85-.5.5-1.83.74-3.99.74h-7.03c-2.07 0-3.36-.25-3.85-.74-.5-.5-.74-1.78-.74-3.85v-2.97c-2.6 3.31-5.44 5.72-8.5 7.21zm-12.57-44.05c-1.98.86-3.72 2.03-5.2 3.51-1.49 1.49-2.66 3.22-3.51 5.2-.86 1.98-1.28 4.1-1.28 6.35s.43 4.39 1.28 6.42c.86 2.03 2.03 3.78 3.51 5.27s3.22 2.66 5.2 3.51c1.98.86 4.1 1.28 6.35 1.28 2.34 0 4.5-.43 6.49-1.28 1.98-.86 3.72-2.03 5.2-3.51s2.63-3.24 3.45-5.27c.81-2.03 1.22-4.21 1.22-6.55 0-2.25-.43-4.35-1.28-6.28-.86-1.94-2.03-3.65-3.51-5.13-1.49-1.49-3.2-2.66-5.13-3.51-1.94-.86-4.03-1.28-6.28-1.28-2.36-.02-4.53.41-6.51 1.27z"/><path d="m455.71 296.43c-3.06 1.49-6.62 2.23-10.68 2.23-4.14 0-7.97-.79-11.49-2.36-3.51-1.58-6.55-3.76-9.12-6.55s-4.57-6.08-6.01-9.86-2.16-7.93-2.16-12.43c0-4.42.72-8.51 2.16-12.3 1.44-3.78 3.45-7.07 6.01-9.86s5.58-4.98 9.05-6.55 7.23-2.37 11.28-2.37 7.59.74 10.61 2.23 5.97 3.9 8.85 7.23v-45.67c0-2.07.25-3.36.74-3.85.5-.5 1.78-.74 3.85-.74h7.16c2.07 0 3.36.25 3.85.74.5.5.74 1.78.74 3.85v92.02c0 2.07-.25 3.36-.74 3.85-.5.5-1.78.74-3.85.74h-7.16c-2.07 0-3.36-.25-3.85-.74-.5-.5-.74-1.78-.74-3.85v-2.97c-2.6 3.31-5.44 5.72-8.5 7.21zm-12.57-44.05c-1.98.86-3.72 2.03-5.2 3.51-1.49 1.49-2.66 3.22-3.51 5.2-.86 1.98-1.28 4.1-1.28 6.35s.43 4.39 1.28 6.42c.86 2.03 2.03 3.78 3.51 5.27s3.24 2.66 5.27 3.51c2.03.86 4.17 1.28 6.42 1.28s4.37-.43 6.35-1.28c1.98-.86 3.72-2.03 5.2-3.51s2.66-3.24 3.51-5.27c.86-2.03 1.28-4.21 1.28-6.55 0-2.25-.43-4.35-1.28-6.28-.86-1.94-2.03-3.65-3.51-5.13-1.49-1.49-3.22-2.66-5.2-3.51-1.98-.86-4.1-1.28-6.35-1.28-2.34-.02-4.51.41-6.49 1.27z"/><path d="m508.41 281.83c2.43 2.66 5.9 3.99 10.4 3.99 2.7 0 5.16-.52 7.37-1.55s3.94-2.5 5.2-4.39c.81-1.08 1.67-1.62 2.57-1.62h.54c.18 0 .77.09 1.76.27l5.95.95c1.62.27 2.73.61 3.31 1.01.59.41.88 1.06.88 1.96s-.47 2.09-1.42 3.58-2.05 2.86-3.31 4.12c-5.86 5.67-13.38 8.51-22.57 8.51-4.77 0-9.08-.74-12.91-2.23s-7.12-3.58-9.86-6.28c-2.75-2.7-4.87-5.97-6.35-9.8-1.49-3.83-2.23-8.08-2.23-12.77s.72-8.96 2.16-12.84c1.44-3.87 3.49-7.16 6.15-9.86s5.88-4.8 9.66-6.28c3.78-1.49 8.02-2.23 12.7-2.23 6.85 0 12.68 1.58 17.5 4.73s8.27 7.61 10.34 13.38c.63 1.8 1.13 3.76 1.49 5.88s.54 4.08.54 5.88c0 1.71-.27 2.79-.81 3.24s-1.85.68-3.92.68h-39.05c.17 5.12 1.48 9.02 3.91 11.67zm10.4-33.71c-3.69 0-6.73 1.01-9.12 3.04s-3.94 4.89-4.66 8.58h27.7c-1.8-7.75-6.44-11.62-13.92-11.62z"/></g><path d="m142.31 120.17h-14.49c-4.17 0-6.8.59-7.89 1.75-1.16 1.08-1.74 3.71-1.74 7.88v103.64c0 9.92-.43 16.25-1.25 19-2.09 7.08-7.22 10.63-15.38 10.63-6.24 0-10.79-2.37-13.63-7.13-2.17-3.75-3.23-11.24-3.23-22.5v-103.65c0-.44-.01-.85-.02-1.26v-50.72l10.44 21.83c1.5 3.08 3.46 4.63 5.87 4.63 4 0 8.84-1.63 14.51-4.87 5.59-3.25 8.37-6.08 8.37-8.51 0-1.34-.41-2.83-1.25-4.5l-29.64-61.89c-2.41-5-5.59-8.61-9.5-10.81-3.93-2.21-9.12-3.31-15.63-3.31-11.93 0-19.7 3.79-23.39 11.38l-31.5 64.63c-.75 1.58-1.12 3.08-1.12 4.5 0 2.42 2.77 5.25 8.32 8.51 5.53 3.24 10.39 4.87 14.56 4.87 2.34 0 4.24-1.54 5.74-4.63l10.48-21.81v51.55c0 .14-.01.27-.01.41v112.76c0 6.51.13 10.71.37 12.63 1.42 12.75 6.34 22.29 14.75 28.63 8.67 6.51 20.41 9.75 35.26 9.75 21.83 0 36.85-6.66 45-20 2.17-3.5 3.65-7.12 4.45-10.87.79-3.76 1.18-8.84 1.18-15.25v-117.65c0-4.17-.58-6.8-1.74-7.88-1.09-1.16-3.72-1.74-7.89-1.74z" fill="#00b085"/><path d="m260.79 145.42c-4.08-8.75-10.04-15.34-17.87-19.75-6.67-3.67-16.21-5.51-28.62-5.51h-31.26c-4.17 0-6.8.59-7.87 1.75-1.18 1.08-1.76 3.71-1.76 7.88v151.39c0 4.17.58 6.8 1.76 7.88 1.07 1.17 3.7 1.75 7.87 1.75h14.51c4.15 0 6.79-.58 7.87-1.75 1.16-1.08 1.76-3.71 1.76-7.88v-60.63c2.82.34 5.37.5 7.61.5 18.43 0 32.13-5.83 41.14-17.51 6.82-8.92 10.24-19.87 10.24-32.87 0-9-1.79-17.42-5.38-25.25zm-36.38 43.75c-3.4 2.17-9.16 3.21-17.24 3.13v-44.88c2.75-.08 4.65-.13 5.74-.13 6.75 0 11.74 1.9 14.94 5.69 3.22 3.79 4.82 9.65 4.82 17.56.01 8.92-2.74 15.14-8.26 18.63z" fill="#00b085"/></svg>